<?xml version="1.0" encoding="utf-8"?>
<!-- Generator: Adobe Illustrator 19.2.1, SVG Export Plug-In . SVG Version: 6.00 Build 0)  -->
<svg version="1.0" id="Layer_1" xmlns="http://www.w3.org/2000/svg" xmlns:xlink="http://www.w3.org/1999/xlink" x="0px" y="0px"
	 width="512px" height="512px" viewBox="0 0 512 512" enable-background="new 0 0 512 512" xml:space="preserve">
<path d="M512,352.4v-5.9H0V512h4.3c0,0,16.2-26.8,19-50.5c0,0,0-0.1,0-0.1c2.1-18.5,5.3-30.2,6.9-35.2c0.4-1.1-0.8-2.1-1.8-1.6
	c-9,4.2-12.1,7.5-12.3,7.7c0,0,0,0,0,0s-6.9-33.7,11.6-49.3c18.5-15.6,32.5-19.6,40.3-11.7s-3.9,18.4-10.6,17.3c0,0-1.7-8.4-7.3-6.7
	c-5.6,1.7-6.2,12.3,2.2,14c2.8,0.6,7.3-0.8,11.7-3.3c4.2,5.9,24.8,33,61,42.9c8.4,2.3,16,3.8,22.9,4.6c-0.8,1-1.8,2.2-2.5,3.3
	c-1.3,2-4.8,0.8-9.5,3.8s2.8,6.8,8.3,4c4-2,6-8.1,6.3-10.8c12.3,1.2,22.3,0,30.2-2.7c3.5,0.7,6.4,3.5,6.7,4.9
	c1.3,6.5-7.8,5.3-7.7,13.8c0.1,9.5,3.2,8.2,6.7,4.4c3.8-4,4.5-8.8,5.3-15.5c0.5-4.2-3.9-7.4-7.2-9.2c21.7-9.6,24.1-32.4,12.3-48.2
	c1.2-8.4,7.4-24.3,16.2-25.1c11-1,16.3,9.8,13.3,12.8c0,0-2-5.3-8.8-4.8c-10.2,0.8-8.2,16-3.7,23.5c3.6,6,14.3,14.1,18.2,16.5
	c0.7,0.4,1.5,0.1,1.7-0.7c0,0,0.5-9.9,3.6-12.8c9.6-8.7,11.7-18.3,6.5-22.5c-5.3-4.3-11.8,1.3-11.8,1.3s0.3-16.3-19-17.7h39.4V512
	h8.2V358.3h39c-19.3,1.5-19,17.7-19,17.7s-6.4-5.5-11.8-1.3c-5.2,4.2-3.1,13.8,6.5,22.5c3.1,2.9,3.6,12.8,3.6,12.8
	c0.2,0.7,1,1.1,1.7,0.7c3.9-2.4,14.5-10.5,18.2-16.5c4.5-7.5,6.5-22.8-3.7-23.5c-6.8-0.5-8.8,4.8-8.8,4.8c-3-3,2.3-13.8,13.3-12.8
	c8.8,0.8,15,16.7,16.1,25.1c-11.8,15.9-9.4,38.6,12.3,48.2c-3.3,1.8-7.7,4.9-7.2,9.2c0.8,6.8,1.5,11.5,5.3,15.5
	c3.5,3.8,6.6,5.1,6.7-4.4c0.1-8.6-8.9-7.3-7.7-13.8c0.3-1.4,3.3-4.3,6.7-4.9c7.9,2.7,17.9,3.8,30.2,2.7c0.4,2.7,2.4,8.8,6.3,10.8
	c5.5,2.8,13-1,8.3-4s-8.3-1.8-9.5-3.8c-0.7-1.1-1.7-2.3-2.5-3.3c6.9-0.8,14.6-2.3,22.9-4.6c36.2-10,56.8-37,61-42.9
	c4.4,2.6,8.9,3.9,11.7,3.3c8.4-1.7,7.8-12.3,2.2-14c-5.6-1.7-7.3,6.7-7.3,6.7c-6.7,1.1-18.4-9.5-10.6-17.3s21.8-3.9,40.3,11.7
	c18.5,15.6,11.6,49.3,11.6,49.3s0,0,0,0c-0.2-0.2-3.4-3.4-12.3-7.7c-1-0.5-2.2,0.5-1.8,1.6c1.6,5,4.8,16.7,6.9,35.2c0,0,0,0.1,0,0.1
	c2.9,23.8,19,50.5,19,50.5h4.3V352.4H512z M77,394.5c-2.5-5.5,6.3-13.2,13.3-10.5c6.2,2.3,1.3,7.3,1.3,7.3c-3.8-2.8-7.8,1-7.8,3.5
	s5.3,3.8,7.8,2.8s8.5-5.8,5.5-12.3c-2-4.3-8.8-8.3-18.7-3c-5,2.6-7.3,7.8-6.1,13.1c-2-2.3-3.5-4.2-4.5-5.4c7.1-5.5,12.4-14.1,7-22.7
	c-9.5-15.1-43-9.5-58.7,8.4c0,0-0.5-10.4-3-17.3h75.8c5.4,5.9,17.8,21,16.8,32c-1.3,14-16.3,14-19.3,12.8S78.8,398.6,77,394.5z
	 M189.7,380.5c-0.8-0.7-1.7-1.3-2.7-1.9c-16.9-11.3-37.8-5.8-47.2,8c-1.1-0.4-2.6-1.6-4.5-4.8c-4-6.5-8-11.4-10.2-9.2
	c-2.3,2.2,4.8,12.1,8.3,14.2c1.5,0.9,3.6,1.4,5.4,1.7c-2.7,4.6-4.1,10-3.8,16c0.9,19.2,29.7,17.7,32,11.9c2.3-5.8-1.5-10.3-5.3-9.6
	s-7.3,4.6-2.8,9.6c0,0-4.6,2.5-9.3-0.2c-15.9-8.9-1.7-35.6,17.6-29.6c28.8,9,33.3,57-40.5,44c-15.9-2.8-30.2-12.4-40.8-21.7
	c9.1,3.6,24-1.1,26-19.1c1.4-12.2-5.4-25.9-8.5-31.5h106.8C197.4,359.3,191.7,373.6,189.7,380.5z M386.1,430.5
	c-73.8,13-69.3-35-40.5-44c19.3-6,33.4,20.8,17.6,29.6c-4.7,2.6-9.3,0.2-9.3,0.2c4.5-4.9,1-8.8-2.8-9.6s-7.5,3.8-5.3,9.6
	c2.3,5.8,31,7.3,32-11.9c0.3-6-1.2-11.4-3.8-16c1.8-0.3,3.9-0.8,5.4-1.7c3.5-2,10.5-12,8.3-14.2c-2.3-2.2-6.3,2.7-10.2,9.2
	c-2,3.2-3.5,4.4-4.5,4.8c-9.4-13.7-30.3-19.2-47.2-8c-0.9,0.6-1.8,1.3-2.7,1.9c-2-6.9-7.7-21.2-20.4-22.2h106.8
	c-3.1,5.5-9.8,19.2-8.5,31.5c2,18,17,22.7,26,19.1C416.3,418.1,402,427.7,386.1,430.5z M496.5,375.6c-15.6-17.9-49.2-23.5-58.7-8.4
	c-5.4,8.6-0.1,17.2,7,22.7c-1,1.2-2.5,3.1-4.5,5.4c1.2-5.3-1.1-10.4-6.1-13.1c-9.9-5.3-16.7-1.3-18.7,3c-3,6.5,3,11.3,5.5,12.3
	s7.8-0.3,7.8-2.8s-4-6.3-7.8-3.5c0,0-4.9-4.9,1.3-7.3c7-2.7,15.8,5,13.3,10.5c-1.8,4.1-6.5,7.3-9.5,8.5s-18,1.3-19.3-12.8
	c-1-11,11.5-26,16.8-32h75.8C497.1,365.2,496.5,375.6,496.5,375.6z"/>
</svg>
