<?xml version="1.0" encoding="utf-8"?>
<!-- Generator: Adobe Illustrator 19.2.1, SVG Export Plug-In . SVG Version: 6.00 Build 0)  -->
<svg version="1.0" id="Layer_1" xmlns="http://www.w3.org/2000/svg" xmlns:xlink="http://www.w3.org/1999/xlink" x="0px" y="0px"
	 width="512px" height="512px" viewBox="0 0 512 512" enable-background="new 0 0 512 512" xml:space="preserve">
<path fill="#FFFFFF" d="M507.1,90.8c-1.4,4.6-2.7,7.3-3.5,8.3c-0.3-0.9-0.5-2.8-0.5-5.7c0-1,0-2.1,0.1-3.3c1.1-2.2,2.3-4.8,3.4-7.4
	C506.6,85.1,506.8,88,507.1,90.8z M498.9,79.5c0.4-1.4,0.9-2.8,1.5-4.3c1.7,0.8,3.4,1.5,5.3,1.9c-0.6,1.5-1.1,2.9-1.6,4.2
	c-0.2,0.4-0.3,0.8-0.5,1.2c-0.5,1.2-1,2.3-1.4,3.3c-0.6,1.3-1.2,2.4-1.7,3.5c-2.2,4.3-4,6.8-4.9,7.6c-0.1-0.3-0.1-0.6-0.1-1
	c0-1.6,0.3-4.3,1.2-8c0.3-1.2,0.6-2.4,1-3.8c0.1-0.5,0.3-1.1,0.5-1.6C498.3,81.6,498.6,80.6,498.9,79.5z M443.1,160.7
	c-11.4,1.1,0.4,9.9-8.9,12.6c-2.5,0.7-5,1.5-7.5,2.4c-2.3-0.8-4.6-1.5-6.8-2.2c-9.4-2.8,2.4-11.7-9.2-12.8c7.5-8.8-7.2-6.8-2.5-15.3
	c1.1-1.9,2.2-3.9,3.2-6c0.2,0,0.4,0,0.6-0.1c2.1-0.7,4-1.6,5.8-2.5c1.8-1,3.5-2,5-3.2c0.2,1.9,0.6,3.9,1.2,5.8c0.5,2,1.3,4,2.2,6
	c0.5,1.2,2.2,1.2,2.8,0c0.3-0.7,0.7-1.4,1-2.1c0.6-1.3,1-2.6,1.5-3.9c0.6-1.9,1-3.8,1.3-5.7c1.5,1.2,3.1,2.3,4.9,3.3
	c1.8,1,3.7,1.9,5.7,2.7c1,2.1,2.1,4.2,3.1,6.2C450.7,154.1,436,152,443.1,160.7z M442.5,217c-7.7,9.1,6.9,7.2,2.2,15.7
	c-0.5,0.9-1,1.8-1.5,2.8c-2-8.6-8.8-15-16.9-15c-8.5,0-15.7,7-17.2,16.3c-0.6-1.2-1.2-2.5-1.9-3.7c-4.6-8.8,9.9-7,2.5-16
	c11.8-1.2,0.2-10,9.8-12.9c2.2-0.7,4.4-1.4,6.7-2.2c2.4,0.8,4.8,1.6,7.1,2.3C442.6,207.1,430.7,215.9,442.5,217z M326.5,71.1
	l9.3-3.8c-0.3,0.7-0.3,1.3-0.1,1.9c0.4,1.2,1.7,1.8,4.1,1.8c0.9,0,2-0.1,3.2-0.3c-3.4,3-4.4,5-3.5,6.6c0.5,0.8,1.4,1.1,2.7,1.1
	s2.9-0.3,4.8-0.9c-1.7,2.2-2.6,3.8-2.8,5.1H333c0-0.1,0-0.2,0-0.2C333,77.5,330.4,73.3,326.5,71.1z M272.4,160.7
	c-11.4,1.1,0.4,9.9-8.9,12.6c-2.5,0.7-5,1.5-7.6,2.4c-2.3-0.8-4.6-1.5-6.8-2.2c-9.4-2.8,2.4-11.7-9.2-12.8c7.5-8.8-7.2-6.8-2.5-15.3
	c1.2-2.1,2.3-4.2,3.4-6.3c1.8-0.7,3.5-1.4,5.1-2.2c1.8-1,3.5-2,5-3.2c0.2,1.9,0.6,3.9,1.2,5.8c0.6,2,1.3,4,2.2,6
	c0.5,1.2,2.2,1.2,2.8,0c0.3-0.7,0.6-1.4,1-2.1c0.6-1.3,1-2.6,1.4-3.9c0.6-1.9,1-3.8,1.3-5.7c1.5,1.2,3.1,2.3,4.9,3.3
	c1.8,1,3.8,1.9,5.9,2.7c0.3,0.1,0.7,0.1,1,0c1,2.1,2,4.1,3.1,6.1C280.1,154.1,265.3,152,272.4,160.7z M271.8,217
	c-7.7,9.1,6.9,7.2,2.2,15.7c-0.7,1.2-1.3,2.4-1.9,3.6c-1.7-9-8.7-15.8-17.1-15.8c-8.3,0-15.2,6.6-17,15.4c-0.5-0.9-0.9-1.9-1.4-2.8
	c-4.6-8.8,9.9-7,2.5-16c11.7-1.2,0.2-10,9.8-12.9c2.2-0.7,4.5-1.4,6.7-2.2c2.4,0.8,4.8,1.6,7.1,2.3C272,207.1,260.1,215.9,271.8,217
	z M101.8,160.7c-11.4,1.1,0.4,9.9-8.9,12.6c-2.5,0.7-5,1.5-7.6,2.4c-2.3-0.8-4.6-1.5-6.8-2.2c-9.4-2.8,2.4-11.7-9.2-12.8
	c7.5-8.8-7.2-6.8-2.5-15.3c1.1-2,2.2-4,3.2-6c0,0,0,0,0,0c0.1,0,0.2,0,0.3-0.1c2.1-0.7,4-1.6,5.8-2.5c1.8-1,3.5-2,5-3.2
	c0.2,1.9,0.6,3.9,1.2,5.8c0.6,2,1.3,4,2.2,6c0.5,1.2,2.2,1.2,2.8,0c0.3-0.7,0.7-1.4,1-2.1c0.6-1.3,1-2.6,1.5-3.9
	c0.6-1.9,1-3.8,1.3-5.7c1.5,1.2,3.1,2.3,4.9,3.3c1.8,1,3.8,1.9,5.9,2.7c0.1,0,0.2,0,0.2,0.1c1,2.1,2,4.1,3.1,6.1
	C109.4,154.1,94.7,152,101.8,160.7z M101.2,217c-7.7,9.1,6.9,7.2,2.2,15.7c-0.6,1.1-1.2,2.2-1.8,3.3c-1.8-8.9-8.7-15.6-17-15.6
	c-8.3,0-15.3,6.7-17.1,15.7c-0.5-1-1-2-1.5-3c-4.6-8.8,9.9-7,2.5-16c11.8-1.2,0.2-10,9.8-12.9c2.2-0.7,4.5-1.4,6.7-2.2
	c2.4,0.8,4.8,1.6,7.1,2.3C101.3,207.1,89.4,215.9,101.2,217z M48.4,33.9c-0.3-0.9-1.1-1.5-2.5-1.7c7.8-3.4,25.1-10,38.2-7.1
	c-0.3,0.2-0.5,0.4-0.7,0.7c-0.9,1.5,0.2,3.6,3.5,6.6c-4.5-0.6-6.7-0.1-7.3,1.5c-0.4,1.1,0,2.2,1.5,3.5c-9-0.4-21.9,3.4-30.4,6.1
	c0.1-0.3,0.1-0.7,0-1c-0.3-1.8-3.2-2.6-6.9-2.8C47.6,37.3,49,35.5,48.4,33.9z M94.8,30c1.1,0.5,2.3,1,3.5,1.6
	c1.3,0.6,2.8,1.4,4.3,2.2c1.3,0.7,2.6,1.4,4,2.2c-1.1,1.5-2,3.1-2.8,4.8c-1.4-0.8-2.7-1.6-3.9-2.3h0c-1.5-0.9-2.8-1.8-4.1-2.7
	c0,0,0,0,0,0c-1.2-0.8-2.2-1.6-3.2-2.3c-3.8-2.9-6-5.1-6.6-6.2C87.4,27.3,90.3,28.1,94.8,30z M91,20.4c1.2,0.2,4,1.5,8,4.1
	c1.6,2.4,3.3,4.7,4.8,6.7c-2.2-1.1-4.8-2.4-7.4-3.6C93.1,24.1,91.4,21.6,91,20.4z M120,81.4c-0.2,0.4-0.3,0.8-0.5,1.2
	c-0.5,1.2-1,2.3-1.4,3.3c-0.6,1.3-1.2,2.4-1.7,3.5c-2.2,4.3-4,6.8-4.9,7.6c-0.1-0.3-0.1-0.6-0.1-1c0-1.6,0.3-4.3,1.2-8
	c0.3-1.2,0.6-2.4,1-3.8c0.1-0.5,0.3-1.1,0.5-1.6c0.3-1,0.6-2,0.9-3c0.4-1.4,0.9-2.8,1.5-4.3c1.7,0.8,3.4,1.5,5.3,1.9
	C121.1,78.6,120.5,80,120,81.4z M122.5,82.6c0.1,2.5,0.3,5.4,0.6,8.2c-1.4,4.6-2.7,7.3-3.5,8.3c-0.3-0.9-0.5-2.8-0.5-5.7
	c0-1,0-2.1,0.1-3.3C120.3,87.8,121.4,85.3,122.5,82.6z M111.1,82.6c-0.4,1.5-0.8,2.8-1.1,4.2c-2.9,3.8-5.1,6-6.1,6.6
	c0-1.3,0.8-4.2,2.7-8.7c0.7-0.7,1.4-1.4,2.2-2.1c1.1-1.2,2.3-2.4,3.5-3.7C111.8,80.1,111.4,81.4,111.1,82.6z M110.3,76.8
	c-1.2,1.3-2.3,2.5-3.3,3.5c-0.8,0.8-1.5,1.5-2.3,2.2c-0.2,0.2-0.4,0.3-0.5,0.5c-3.5,3.3-6,5-7.2,5.5c0.2-1,1.1-3.1,2.8-6
	c0.2-0.3,0.3-0.5,0.5-0.8c0.3-0.4,0.5-0.8,0.8-1.3c0.7-1,1.4-2.1,2.2-3.2c0.9-1.2,1.8-2.5,2.9-3.9c0.9-1.1,1.8-2.3,2.8-3.5
	c1.3,1.3,2.7,2.5,4.3,3.6C112.2,74.6,111.2,75.8,110.3,76.8z M33.2,73c-1.1-0.5-2.3-1-3.5-1.6c-1.3-0.6-2.8-1.4-4.3-2.2
	c-1.3-0.7-2.6-1.4-4-2.2c1.1-1.5,2-3.1,2.8-4.8c1.4,0.8,2.7,1.6,3.9,2.3c0,0,0,0,0,0h0c1.5,0.9,2.8,1.8,4.1,2.7c0,0,0,0,0,0
	c1.2,0.8,2.2,1.5,3.2,2.3c3.8,2.9,6,5.1,6.6,6.1C40.6,75.7,37.7,74.9,33.2,73z M37,82.6c-1.2-0.2-4-1.5-8-4.1
	c-1.6-2.4-3.3-4.7-4.8-6.7c2.2,1.2,4.8,2.4,7.4,3.6C34.9,78.9,36.6,81.4,37,82.6z M48.4,48.5c6.6-2.2,19.9-6.5,29.5-7.1
	c-0.3,0.3-0.5,0.7-0.5,1.1c-0.3,1.8,1.4,3.3,5.6,5c-3.7,0.8-6.3,2.1-6.3,3.9c0,1.9,2.7,3.1,6.3,3.9c-4.2,1.7-5.9,3.2-5.6,5
	c0.2,1.1,1.1,1.9,2.8,2.3L64,69.4l-16.3-6.7c1.7-0.4,2.8-1.1,3-2.3c0.3-1.8-1.4-3.3-5.6-5c3.7-0.8,6.4-2.1,6.4-3.9
	C51.5,50.2,50.3,49.3,48.4,48.5z M86.1,42.5c1,0,2.1,0,3.3,0.1c1.2,0.1,2.5,0.2,3.9,0.3c1.5,0.1,3.1,0.3,4.8,0.6
	c1.4,0.2,2.9,0.4,4.5,0.7c-0.5,1.8-0.8,3.6-1,5.5c-1.6-0.3-3.1-0.6-4.5-0.9c0,0,0,0,0,0c-1.7-0.4-3.2-0.8-4.7-1.1h0
	c-1.4-0.4-2.6-0.7-3.8-1.1h0c-4.6-1.4-7.4-2.7-8.3-3.5C81.3,42.8,83.2,42.5,86.1,42.5z M82.6,34.9c1.2-0.2,4.3,0,9,1.1
	c2,1.5,4.3,3,6.8,4.6c-2.9-0.4-5.6-0.7-8.1-0.8C85.9,37.7,83.4,35.9,82.6,34.9z M88.8,63.8c0.4-0.2,0.9-0.5,1.3-0.7
	c2.5-0.1,5.3-0.4,8.1-0.8c-2.5,1.6-4.8,3.1-6.8,4.6c-4.7,1.1-7.7,1.3-9,1.1C83.3,67.2,85.3,65.7,88.8,63.8z M98.1,59.5
	c-1.7,0.2-3.3,0.4-4.8,0.6c-1.4,0.1-2.7,0.2-3.9,0.3c-4.8,0.3-7.8,0-9-0.5c1-0.8,3.7-2.1,8.3-3.5h0c1.1-0.3,2.4-0.7,3.8-1h0
	c1.4-0.4,3-0.8,4.7-1.1c0,0,0,0,0,0c1.4-0.3,2.9-0.6,4.5-0.9c0.1,1.9,0.5,3.7,1,5.5C101,59.1,99.5,59.3,98.1,59.5z M88.5,53.5
	c-4.8-0.6-7.7-1.4-8.8-2c1.1-0.6,4-1.4,8.8-2c0,0,0,0,0,0c2.4,0.7,5.1,1.4,7.9,2C93.5,52.1,90.9,52.8,88.5,53.5
	C88.5,53.5,88.5,53.5,88.5,53.5z M39.5,53.5C39.5,53.5,39.5,53.5,39.5,53.5c-2.4-0.7-5.1-1.4-7.9-2c2.8-0.6,5.5-1.3,7.9-2
	c4.8,0.6,7.7,1.4,8.8,2C47.3,52.1,44.3,52.9,39.5,53.5z M39.3,46.6c-1.1,0.3-2.4,0.7-3.8,1.1c-1.4,0.4-3,0.8-4.7,1.1
	c-1.4,0.3-2.9,0.6-4.5,0.9c-0.1-1.9-0.5-3.7-1-5.5c1.6-0.3,3.1-0.5,4.5-0.7h0c1.7-0.3,3.3-0.4,4.8-0.6c0,0,0,0,0,0
	c1.4-0.1,2.7-0.2,3.9-0.3c4.8-0.2,7.8,0,9,0.5C46.7,43.9,43.9,45.2,39.3,46.6z M26.4,53.3c1.6,0.3,3.1,0.6,4.5,0.9c0,0,0,0,0,0h0
	c1.7,0.4,3.2,0.8,4.7,1.1h0c1.4,0.3,2.6,0.7,3.7,1h0c4.6,1.4,7.4,2.7,8.3,3.5c-1.2,0.4-4.2,0.7-9,0.5c-1.2,0-2.5-0.2-3.9-0.3
	c-1.5-0.1-3.1-0.3-4.8-0.6c-1.4-0.2-2.9-0.4-4.5-0.7C25.9,57,26.3,55.2,26.4,53.3z M45.4,68c-1.2,0.2-4.3,0-9-1.1
	c-2-1.5-4.3-3.1-6.8-4.6c2.5,0.3,5.3,0.7,8.1,0.8C42.1,65.3,44.6,67.1,45.4,68z M41.9,78.4c1.3,0,2.3-0.3,2.7-1.1
	c0.9-1.5-0.2-3.6-3.5-6.6c1.3,0.2,2.3,0.3,3.2,0.3c2.4,0,3.6-0.6,4.1-1.8c0.2-0.6,0.2-1.2-0.1-1.9l9.5,3.9c-4,2.2-6.8,6.5-6.8,11.4
	H39.9c-0.2-1.3-1.1-2.9-2.8-5.1C38.9,78,40.6,78.4,41.9,78.4z M64,73.6c5,0,9,4,9,9s-4,9-9,9s-9-4-9-9S59,73.6,64,73.6z M70.2,71.2
	l9.5-3.9c-0.3,0.7-0.3,1.3-0.1,1.9c0.4,1.2,1.7,1.8,4.1,1.8c0.9,0,2-0.1,3.2-0.3c-3.4,3-4.4,5-3.5,6.6c0.5,0.8,1.4,1.1,2.7,1.1
	s2.9-0.3,4.8-0.9c-1.7,2.2-2.6,3.8-2.8,5.1H77C77,77.7,74.3,73.4,70.2,71.2z M86.1,75.7c0.6-1,2.3-2.8,5.4-5.2
	c0.4-0.3,0.8-0.6,1.2-0.9c1-0.7,2-1.5,3.2-2.3c0,0,0,0,0,0c1.2-0.8,2.6-1.8,4.1-2.7h0c1.2-0.8,2.5-1.5,3.9-2.3
	c0.8,1.7,1.7,3.3,2.8,4.8c-1.4,0.8-2.7,1.5-4,2.2c-1.5,0.8-3,1.5-4.3,2.2c-1.3,0.6-2.4,1.1-3.5,1.6C90.3,74.9,87.4,75.7,86.1,75.7z
	 M96.4,75.4c2.6-1.1,5.2-2.4,7.4-3.6c-1.5,2-3.3,4.3-4.8,6.7c-4,2.6-6.8,3.9-8,4.1C91.4,81.4,93.1,78.9,96.4,75.4z M39.2,39.2
	c-0.4,0.2-0.9,0.5-1.3,0.7h0c-2.8,0.2-5.7,0.5-8.1,0.8c2.5-1.6,4.7-3.1,6.8-4.6c4.7-1.1,7.7-1.3,9-1.1
	C44.7,35.8,42.7,37.3,39.2,39.2z M36.5,32.5c-0.4,0.3-0.8,0.6-1.2,0.9c-1,0.7-2,1.5-3.2,2.3c-1.2,0.9-2.6,1.8-4.1,2.7
	c-1.2,0.8-2.5,1.6-3.9,2.3c-0.8-1.7-1.7-3.3-2.8-4.8c1.4-0.8,2.7-1.5,4-2.2c1.5-0.8,3-1.5,4.3-2.2c1.3-0.6,2.4-1.1,3.5-1.6
	c4.4-1.9,7.4-2.7,8.7-2.7C41.3,28.3,39.5,30.1,36.5,32.5z M32.6,26.5c-0.3,0.4-0.6,0.7-1,1.1c-2.6,1.1-5.2,2.4-7.4,3.6
	c1.5-2,3.3-4.3,4.8-6.7c4-2.6,6.8-3.9,8-4.1C36.7,21.4,35.2,23.5,32.6,26.5z M27.8,21.2c-0.3,0.4-0.5,0.8-0.8,1.3
	c-0.7,1-1.4,2.1-2.2,3.2c-0.9,1.2-1.8,2.5-2.9,3.9C21,30.7,20,31.9,19,33.2c-1.3-1.4-2.7-2.6-4.3-3.6c1-1.2,2-2.3,3-3.4
	c1.2-1.3,2.3-2.5,3.3-3.5l0,0c1-1,1.9-1.9,2.8-2.7c3.5-3.3,6-5,7.2-5.5C30.9,15.5,29.8,17.9,27.8,21.2z M19,69.8
	c1,1.2,2,2.4,2.8,3.5c1.1,1.4,2,2.7,2.9,3.9c0.8,1.1,1.5,2.2,2.2,3.2c0.5,0.7,0.9,1.4,1.3,2.1c0.7,1.1,1.2,2.1,1.7,3
	c0.7,1.4,1,2.4,1.2,3c-1-0.4-3.2-1.8-6.1-4.4c-0.4-0.3-0.7-0.7-1.1-1c-0.2-0.2-0.3-0.3-0.5-0.5c-0.7-0.7-1.5-1.4-2.3-2.2
	c-1-1.1-2.2-2.2-3.3-3.5c-1-1-2-2.2-3-3.4C16.3,72.4,17.7,71.2,19,69.8z M19.3,82.6c0.7,0.8,1.5,1.5,2.2,2.1
	c1.9,4.4,2.7,7.4,2.7,8.7c-1-0.6-2.8-2.3-5.2-5.4c-0.3-0.4-0.6-0.8-0.9-1.2c-0.3-1.3-0.7-2.7-1.1-4.2c-0.3-1.2-0.7-2.4-1.1-3.7
	C17,80.2,18.2,81.4,19.3,82.6z M70.2,109.7c0.3,0.7,0.6,1.3,1,2c1,1.8,2,3.5,3.2,5c-1.9,0.2-3.8,0.6-5.8,1.1c-2,0.6-4,1.3-6.1,2.2
	c-1.2,0.5-1.2,2.2,0,2.8c2,1,4,1.8,6,2.4c1.9,0.6,3.9,1,5.8,1.3c-1.2,1.5-2.3,3.1-3.3,4.9c-0.8,1.4-1.5,3-2.2,4.6
	c-1-1.3-2.1-2.5-3.2-3.8c-2.4-2.6-4.9-5.1-7.5-7.4c-2-1.7-4.1-3.4-6.2-4.9c-2.5,1.2-4.9,2.4-7.3,3.6c-8.6,4.5-6.3-10-15.2-2.8
	c-1-11.1-10,0.6-12.6-8.4c-0.3-0.9-0.5-1.8-0.8-2.7H70.2z M103.2,136.5c-0.6-1.6-1.3-3.2-2.1-4.7c-0.9-1.8-2-3.5-3.1-5
	c1.9-0.2,3.8-0.6,5.8-1.1c2-0.6,4-1.3,6.1-2.2c1.2-0.5,1.2-2.2,0-2.8c-2-1-4-1.8-6-2.4c-1.9-0.6-3.8-1-5.7-1.3
	c1.2-1.5,2.3-3.1,3.3-4.9c0.4-0.8,0.9-1.6,1.3-2.5h53.9c-0.3,0.9-0.6,1.9-0.9,2.8c-2.9,9-11.6-2.7-12.9,8.4c-8.8-7.2-6.8,7.3-15,2.9
	c-2.3-1.3-4.7-2.5-7.1-3.6c-2.2,1.5-4.3,3.2-6.3,4.9c-2.8,2.4-5.4,5-7.9,7.6C105.3,133.9,104.2,135.2,103.2,136.5z M125.2,77.8
	c0.9,0.1,1.8,0.1,2.8,0.1s1.9-0.1,2.8-0.1c0,1.6,0,3.1-0.1,4.5c0,0,0,0,0,0c0,0.1,0,0.2,0,0.2c-0.1,1.7-0.2,3.2-0.3,4.6
	c-0.1,1.4-0.3,2.7-0.4,3.9c-0.3,2.4-0.6,4.3-1,5.8c-0.4,1.5-0.7,2.5-1,3c-0.6-1.1-1.4-4-2-8.8c-0.1-1.2-0.3-2.5-0.4-3.9
	c-0.1-1.4-0.2-2.9-0.3-4.6c0-0.1,0-0.2,0-0.2C125.3,80.9,125.2,79.4,125.2,77.8z M142,82.6c0.2,0.6,0.3,1.1,0.5,1.6
	c0.4,1.3,0.7,2.6,1,3.8c1.1,4.7,1.3,7.8,1.1,9c-0.9-0.8-2.7-3.3-4.9-7.6c-0.5-1.1-1.1-2.2-1.7-3.5c-0.5-1-0.9-2.1-1.4-3.3
	c-0.2-0.4-0.3-0.8-0.5-1.2c-0.5-1.3-1.1-2.7-1.6-4.2c1.8-0.5,3.6-1.1,5.3-1.9c0.5,1.5,1,2.9,1.5,4.3v0
	C141.4,80.6,141.7,81.6,142,82.6z M143.8,78.9c1.2,1.3,2.4,2.5,3.5,3.7c0.7,0.8,1.5,1.5,2.2,2.1c1.9,4.4,2.7,7.4,2.7,8.7
	c-1-0.6-2.8-2.3-5.2-5.4c-0.3-0.4-0.6-0.8-0.9-1.2c-0.3-1.3-0.7-2.7-1.1-4.2C144.6,81.4,144.2,80.1,143.8,78.9z M136.8,90.1
	c0.3,4.8,0,7.8-0.4,9c-0.8-1-2.1-3.7-3.5-8.3v0c0.3-2.8,0.5-5.7,0.6-8.2C134.6,85.3,135.7,87.8,136.8,90.1z M153,84.1
	c-0.4-0.3-0.7-0.7-1.1-1c-0.2-0.2-0.3-0.3-0.5-0.5c-0.7-0.7-1.5-1.4-2.3-2.2c-1-1.1-2.2-2.2-3.3-3.5c-1-1-2-2.2-3-3.4
	c1.5-1,3-2.3,4.3-3.6c1,1.2,2,2.4,2.8,3.5c1.1,1.4,2,2.7,2.9,3.9c0.8,1.1,1.5,2.2,2.2,3.2c0.5,0.7,0.9,1.4,1.3,2.1
	c0.7,1.1,1.2,2.1,1.7,3c0.7,1.4,1,2.4,1.2,3C158,88.1,155.9,86.7,153,84.1z M157,78.5c-1.6-2.4-3.3-4.7-4.8-6.7
	c2.2,1.2,4.8,2.4,7.4,3.6c3.3,3.5,5,6,5.4,7.2C163.8,82.3,161,81.1,157,78.5z M161.2,73c-1.1-0.5-2.3-1-3.5-1.6
	c-1.3-0.6-2.8-1.4-4.3-2.2c-1.3-0.7-2.6-1.4-4-2.2c1.1-1.5,2-3.1,2.8-4.8c1.4,0.8,2.7,1.6,3.9,2.3c0,0,0,0,0,0h0
	c1.5,0.9,2.8,1.8,4.1,2.7c0,0,0,0,0,0c1.2,0.8,2.2,1.5,3.2,2.3c3.8,2.9,6,5.1,6.6,6.1C168.6,75.7,165.7,74.9,161.2,73z M153.3,33.7
	c1.5-0.8,3-1.5,4.3-2.2c1.3-0.6,2.4-1.1,3.5-1.6c4.4-1.9,7.4-2.7,8.7-2.7c-0.6,1-2.3,2.8-5.4,5.2c-0.4,0.3-0.8,0.6-1.2,0.9
	c-1,0.7-2,1.5-3.2,2.3c-1.2,0.9-2.6,1.8-4.1,2.7c-1.2,0.8-2.5,1.6-3.9,2.3c-0.8-1.7-1.7-3.3-2.8-4.8
	C150.7,35.1,152.1,34.4,153.3,33.7z M152.2,31.2c1.5-2,3.3-4.3,4.8-6.7c4-2.6,6.8-3.9,8-4.1c-0.4,1-1.8,3.2-4.4,6.1
	c-0.3,0.4-0.6,0.7-1,1.1C157,28.7,154.4,30,152.2,31.2z M172.6,25.7c-0.2-0.3-0.4-0.5-0.6-0.7c13-2.9,30.5,3.6,38.4,7.1
	c-1.5,0.2-2.4,0.8-2.7,1.7c-0.6,1.7,0.8,3.5,4.6,5.9c-4.5,0.2-6.6,1-6.9,2.8c-0.1,0.3,0,0.6,0,0.9c-8.5-2.7-21.4-6.3-30.4-6
	c1.4-1.3,1.9-2.5,1.5-3.6c-0.6-1.7-2.8-2.2-7.3-1.5C172.4,29.3,173.5,27.3,172.6,25.7z M222.8,30c1.1,0.5,2.3,1,3.5,1.6
	c1.3,0.6,2.8,1.4,4.3,2.2c1.3,0.7,2.6,1.4,4,2.2c-1.1,1.5-2,3.1-2.8,4.8c-1.4-0.8-2.7-1.6-3.9-2.3h0c-1.5-0.9-2.8-1.8-4.1-2.7
	c0,0,0,0,0,0c-1.2-0.8-2.2-1.6-3.2-2.3c-3.8-2.9-6-5.1-6.6-6.2C215.4,27.3,218.3,28.1,222.8,30z M219,20.4c1.2,0.2,4,1.5,8,4.1
	c1.6,2.4,3.3,4.7,4.8,6.7c-2.2-1.1-4.8-2.4-7.4-3.6C221.1,24.1,219.4,21.6,219,20.4z M248,81.4c-0.2,0.4-0.3,0.8-0.5,1.2
	c-0.5,1.2-1,2.3-1.4,3.3c-0.6,1.3-1.2,2.4-1.7,3.5c-2.2,4.3-4,6.8-4.9,7.6c-0.1-0.3-0.1-0.6-0.1-1c0-1.6,0.3-4.3,1.2-8
	c0.3-1.2,0.6-2.4,1-3.8c0.1-0.5,0.3-1.1,0.5-1.6c0.3-1,0.6-2,0.9-3c0.4-1.4,0.9-2.8,1.5-4.3c1.7,0.8,3.4,1.5,5.3,1.9
	C249.1,78.6,248.5,80,248,81.4z M250.5,82.6c0.1,2.5,0.3,5.4,0.6,8.2c-1.4,4.6-2.7,7.3-3.5,8.3c-0.3-0.9-0.5-2.8-0.5-5.7
	c0-1,0-2.1,0.1-3.3C248.3,87.8,249.4,85.3,250.5,82.6z M239.1,82.6c-0.4,1.5-0.8,2.8-1.1,4.2c-2.9,3.8-5.1,6-6.1,6.6
	c0-1.3,0.8-4.2,2.7-8.7c0.7-0.7,1.4-1.4,2.2-2.1c1.1-1.2,2.3-2.4,3.5-3.7C239.8,80.1,239.4,81.4,239.1,82.6z M238.3,76.8
	c-1.2,1.3-2.3,2.5-3.3,3.5c-0.8,0.8-1.5,1.5-2.3,2.2c-0.2,0.2-0.4,0.3-0.5,0.5c-3.5,3.3-6,5-7.2,5.5c0.2-1,1.1-3.1,2.8-6
	c0.2-0.3,0.3-0.5,0.5-0.8c0.3-0.4,0.5-0.8,0.8-1.3c0.7-1,1.4-2.1,2.2-3.2c0.9-1.2,1.8-2.5,2.9-3.9c0.9-1.1,1.8-2.3,2.8-3.5
	c1.3,1.3,2.7,2.5,4.3,3.6C240.2,74.6,239.2,75.8,238.3,76.8z M173.1,55.4c3.7-0.8,6.4-2.1,6.4-3.9c0-1.9-2.7-3.1-6.4-3.9
	c4.2-1.7,5.9-3.2,5.6-5c-0.1-0.4-0.3-0.8-0.6-1.1c9.6,0.6,23,4.8,29.7,7c-2,0.8-3.3,1.8-3.3,3c0,1.9,2.7,3.1,6.3,3.9
	c-4.2,1.7-5.9,3.2-5.6,5c0.2,1.1,1.1,1.9,2.8,2.3L192,69.4l-16.3-6.7c1.7-0.4,2.8-1.1,3-2.3C179,58.7,177.3,57.1,173.1,55.4z
	 M166.6,60.3c-1.2,0-2.5-0.2-3.9-0.3c-1.5-0.1-3.1-0.3-4.8-0.6c-1.4-0.2-2.9-0.4-4.5-0.7c0.5-1.8,0.8-3.6,1-5.5
	c1.6,0.3,3.1,0.6,4.5,0.9c0,0,0,0,0,0h0c1.7,0.4,3.2,0.8,4.7,1.1h0c1.4,0.3,2.6,0.7,3.7,1h0c4.6,1.4,7.4,2.7,8.3,3.5
	C174.4,60.3,171.4,60.6,166.6,60.3z M173.4,68c-1.2,0.2-4.3,0-9-1.1c-2-1.5-4.3-3.1-6.8-4.6c2.5,0.3,5.3,0.7,8.1,0.8
	C170.1,65.3,172.6,67.1,173.4,68z M157.9,43.5L157.9,43.5c1.7-0.3,3.4-0.4,4.8-0.6c0,0,0,0,0,0c1.4-0.1,2.7-0.2,3.9-0.3
	c4.8-0.2,7.8,0,9,0.5c-1,0.8-3.7,2.1-8.3,3.5c-1.1,0.3-2.4,0.7-3.8,1.1c-1.4,0.4-3,0.8-4.7,1.1c-1.4,0.3-2.9,0.6-4.5,0.9
	c-0.1-1.9-0.5-3.7-1-5.5C155,43.9,156.5,43.7,157.9,43.5z M157.7,40.7c2.5-1.6,4.7-3.1,6.8-4.6c4.7-1.1,7.7-1.3,9-1.1
	c-0.7,0.8-2.8,2.3-6.3,4.2c-0.4,0.2-0.9,0.5-1.3,0.7h0C163,40,160.2,40.3,157.7,40.7z M167.5,49.5c4.8,0.6,7.7,1.4,8.8,2
	c-1.1,0.6-4,1.4-8.8,2c0,0,0,0,0,0c-2.4-0.7-5.1-1.4-7.9-2C162.5,50.9,165.1,50.2,167.5,49.5z M226.1,59.5c-1.7,0.2-3.3,0.4-4.8,0.6
	c-1.4,0.1-2.7,0.2-3.9,0.3c-4.8,0.3-7.8,0-9-0.5c1-0.8,3.7-2.1,8.3-3.5h0c1.1-0.3,2.4-0.7,3.8-1h0c1.4-0.4,3-0.8,4.7-1.1
	c0,0,0,0,0,0c1.4-0.3,2.9-0.6,4.5-0.9c0.1,1.9,0.5,3.7,1,5.5C229,59.1,227.5,59.3,226.1,59.5z M226.3,62.3c-2.5,1.6-4.8,3.1-6.8,4.6
	c-4.7,1.1-7.7,1.3-9,1.1c0.7-0.9,2.8-2.3,6.3-4.2c0.4-0.2,0.9-0.5,1.3-0.7C220.7,63,223.4,62.7,226.3,62.3z M229.6,49.7
	c-1.6-0.3-3.1-0.6-4.5-0.9c0,0,0,0,0,0c-1.7-0.4-3.2-0.8-4.7-1.1h0c-1.4-0.4-2.6-0.7-3.8-1.1h0c-4.6-1.4-7.4-2.7-8.3-3.5
	c0.9-0.3,2.8-0.5,5.7-0.5c1,0,2.1,0,3.3,0.1c1.2,0.1,2.5,0.2,3.9,0.3c1.5,0.1,3.1,0.3,4.8,0.6c1.4,0.2,2.9,0.4,4.5,0.7
	C230.1,45.9,229.8,47.8,229.6,49.7z M216.5,49.5C216.5,49.5,216.5,49.5,216.5,49.5c2.4,0.7,5.1,1.4,7.9,2c-2.8,0.6-5.5,1.3-7.9,2
	c0,0,0,0,0,0c-4.8-0.6-7.7-1.4-8.8-2C208.7,50.9,211.7,50,216.5,49.5z M207.8,67.2c-0.3,0.7-0.3,1.3-0.1,1.9
	c0.4,1.2,1.7,1.8,4.1,1.8c0.9,0,2-0.1,3.2-0.3c-3.4,3-4.4,5-3.5,6.6c0.5,0.8,1.4,1.1,2.7,1.1s2.9-0.3,4.8-0.9
	c-1.7,2.2-2.6,3.8-2.8,5.1H205c0-4.9-2.7-9.2-6.8-11.4L207.8,67.2z M214.1,75.7c0.6-1,2.3-2.8,5.4-5.2c0.4-0.3,0.8-0.6,1.2-0.9
	c1-0.7,2-1.5,3.2-2.3c0,0,0,0,0,0c1.2-0.8,2.6-1.8,4.1-2.7h0c1.2-0.8,2.5-1.5,3.9-2.3c0.8,1.7,1.7,3.3,2.8,4.8
	c-1.4,0.8-2.7,1.5-4,2.2c-1.5,0.8-3,1.5-4.3,2.2c-1.3,0.6-2.4,1.1-3.5,1.6C218.3,74.9,215.4,75.7,214.1,75.7z M224.4,75.4
	c2.6-1.1,5.2-2.4,7.4-3.6c-1.5,2-3.3,4.3-4.8,6.7c-4,2.6-6.8,3.9-8,4.1C219.4,81.4,221.1,78.9,224.4,75.4z M219.5,36
	c2,1.5,4.3,3,6.8,4.6c-2.9-0.4-5.6-0.7-8.1-0.8c-4.3-2.2-6.8-4-7.6-4.9C211.8,34.7,214.8,35,219.5,36z M169.9,78.4
	c1.3,0,2.3-0.3,2.7-1.1c0.9-1.5-0.2-3.6-3.5-6.6c1.3,0.2,2.3,0.3,3.2,0.3c2.4,0,3.6-0.6,4.1-1.8c0.2-0.6,0.2-1.2-0.1-1.9l9.5,3.9
	c-4,2.2-6.8,6.5-6.8,11.4h-11.1c-0.2-1.3-1.1-2.9-2.8-5.1C166.9,78,168.6,78.4,169.9,78.4z M192,73.6c5,0,9,4,9,9s-4,9-9,9
	c-5,0-9-4-9-9S187,73.6,192,73.6z M240,109.7c0.3,0.7,0.6,1.3,1,2c1,1.8,2,3.5,3.2,5c-1.9,0.2-3.8,0.6-5.8,1.1c-2,0.6-4,1.3-6.1,2.2
	c-1.2,0.5-1.2,2.2,0,2.8c2,1,4,1.8,6,2.4c1.9,0.6,3.8,1,5.8,1.3c-1.2,1.5-2.3,3.1-3.3,4.9c-0.7,1.3-1.3,2.6-1.9,4
	c-0.9-1.1-1.8-2.1-2.7-3.1c-2.4-2.6-4.9-5.1-7.5-7.4c-2-1.7-4-3.4-6.2-4.9c-2.5,1.2-4.9,2.4-7.3,3.6c-8.6,4.5-6.3-10-15.2-2.8
	c-1-11.1-10,0.6-12.6-8.4c-0.3-0.9-0.5-1.8-0.8-2.7H240z M253.2,77.8c0.9,0.1,1.8,0.1,2.8,0.1s1.9-0.1,2.8-0.1c0,1.6,0,3.1-0.1,4.5
	c0,0,0,0,0,0c0,0.1,0,0.2,0,0.2c-0.1,1.7-0.2,3.2-0.3,4.6c-0.1,1.4-0.3,2.7-0.4,3.9c-0.3,2.4-0.6,4.3-1,5.8c0,0.2-0.1,0.4-0.1,0.5
	c-0.3,1.2-0.6,2-0.9,2.5c-0.2-0.4-0.5-1.1-0.8-2.1c-0.4-1.5-0.9-3.8-1.2-6.7c-0.1-1.2-0.3-2.5-0.4-3.9c-0.1-1.4-0.2-2.9-0.3-4.6
	c0-0.1,0-0.2,0-0.2C253.3,80.9,253.2,79.4,253.2,77.8z M270,82.6c0.2,0.6,0.3,1.1,0.5,1.6c0.4,1.3,0.7,2.6,1,3.8
	c1.1,4.7,1.3,7.8,1.1,9c-0.9-0.8-2.7-3.3-4.9-7.6c-0.5-1.1-1.1-2.2-1.7-3.5c-0.5-1-0.9-2.1-1.4-3.3c-0.2-0.4-0.3-0.8-0.5-1.2
	c-0.5-1.3-1.1-2.7-1.6-4.2c1.8-0.5,3.6-1.1,5.3-1.9c0.5,1.5,1,2.9,1.5,4.3v0C269.4,80.6,269.7,81.6,270,82.6z M304.4,33.9
	c-0.3-0.9-1.1-1.4-2.4-1.7c7.7-3.4,25-10.1,38.1-7.1c-0.3,0.2-0.5,0.4-0.7,0.7c-0.9,1.5,0.2,3.6,3.5,6.6c-4.5-0.6-6.7-0.1-7.3,1.5
	c-0.4,1.1,0,2.2,1.5,3.5c-9.1-0.3-22,3.4-30.5,6.2c0.1-0.3,0.1-0.7,0.1-1.1c-0.3-1.8-3.2-2.6-6.9-2.8
	C303.6,37.3,305,35.5,304.4,33.9z M350.8,30c1.1,0.5,2.3,1,3.5,1.6c1.3,0.6,2.8,1.4,4.3,2.2c1.3,0.7,2.6,1.4,4,2.2
	c-1.1,1.5-2,3.1-2.8,4.8c-1.4-0.8-2.7-1.6-3.9-2.3h0c-1.5-0.9-2.8-1.8-4.1-2.7c0,0,0,0,0,0c-1.2-0.8-2.2-1.6-3.2-2.3
	c-3.8-2.9-6-5.1-6.6-6.2C343.4,27.3,346.3,28.1,350.8,30z M347,20.4c1.2,0.2,4,1.5,8,4.1c1.6,2.4,3.3,4.7,4.8,6.7
	c-2.2-1.1-4.8-2.4-7.4-3.6C349.1,24.1,347.4,21.6,347,20.4z M354.1,59.5c-1.7,0.2-3.3,0.4-4.8,0.6c-1.4,0.1-2.7,0.2-3.9,0.3
	c-4.8,0.3-7.8,0-9-0.5c1-0.8,3.7-2.1,8.3-3.5h0c1.1-0.3,2.4-0.7,3.8-1h0c1.4-0.4,3-0.8,4.7-1.1c0,0,0,0,0,0c1.4-0.3,2.9-0.6,4.5-0.9
	c0.1,1.9,0.5,3.7,1,5.5C357,59.1,355.5,59.3,354.1,59.5z M354.3,62.3c-2.5,1.6-4.8,3.1-6.8,4.6c-4.7,1.1-7.7,1.3-9,1.1
	c0.7-0.9,2.8-2.3,6.3-4.2c0.4-0.2,0.9-0.5,1.3-0.7C348.7,63,351.4,62.7,354.3,62.3z M333.3,60.4c0.2,1.1,1.1,1.9,2.8,2.3l-16,6.6
	l-0.1,0.1l-0.1-0.1l-16.1-6.7c1.7-0.4,2.8-1.1,3-2.3c0.3-1.8-1.4-3.3-5.6-5c3.7-0.8,6.4-2.1,6.4-3.9c0-1.2-1.2-2.2-3-2.9
	c6.6-2.2,19.8-6.5,29.4-7.1c-0.3,0.3-0.5,0.7-0.5,1.1c-0.3,1.8,1.4,3.3,5.6,5c-3.7,0.8-6.3,2.1-6.3,3.9c0,1.9,2.7,3.1,6.3,3.9
	C334.7,57.1,333,58.7,333.3,60.4z M307,82.6h-11.1c-0.2-1.3-1.1-2.9-2.8-5.1c1.8,0.6,3.5,0.9,4.8,0.9s2.3-0.3,2.7-1.1
	c0.9-1.5-0.2-3.6-3.5-6.6c1.3,0.2,2.3,0.3,3.2,0.3c2.4,0,3.6-0.6,4.1-1.8c0.2-0.6,0.2-1.2-0.1-1.9l9.3,3.8
	c-3.9,2.2-6.5,6.5-6.5,11.3C307,82.4,307,82.5,307,82.6z M289.2,73c-1.1-0.5-2.3-1-3.5-1.6c-1.3-0.6-2.8-1.4-4.3-2.2
	c-1.3-0.7-2.6-1.4-4-2.2c1.1-1.5,2-3.1,2.8-4.8c1.4,0.8,2.7,1.6,3.9,2.3c0,0,0,0,0,0h0c1.5,0.9,2.8,1.8,4.1,2.7c0,0,0,0,0,0
	c1.2,0.8,2.2,1.5,3.2,2.3c3.8,2.9,6,5.1,6.6,6.1C296.6,75.7,293.7,74.9,289.2,73z M293,82.6c-1.2-0.2-4-1.5-8-4.1
	c-1.6-2.4-3.3-4.7-4.8-6.7c2.2,1.2,4.8,2.4,7.4,3.6C290.9,78.9,292.6,81.4,293,82.6z M295.3,46.6c-1.1,0.3-2.4,0.7-3.8,1.1
	c-1.4,0.4-3,0.8-4.7,1.1c-1.4,0.3-2.9,0.6-4.5,0.9c-0.1-1.9-0.5-3.7-1-5.5c1.6-0.3,3.1-0.5,4.5-0.7h0c1.7-0.3,3.3-0.4,4.8-0.6
	c0,0,0,0,0,0c1.4-0.1,2.7-0.2,3.9-0.3c4.8-0.2,7.8,0,9,0.5C302.7,43.9,299.9,45.2,295.3,46.6z M304.3,51.5c-1.1,0.6-4,1.4-8.8,2
	c0,0,0,0,0,0c-2.4-0.7-5.1-1.4-7.9-2c2.8-0.6,5.5-1.3,7.9-2C300.3,50,303.3,50.9,304.3,51.5z M282.4,53.3c1.6,0.3,3.1,0.6,4.5,0.9
	c0,0,0,0,0,0h0c1.7,0.4,3.2,0.8,4.7,1.1h0c1.4,0.3,2.6,0.7,3.7,1h0c4.6,1.4,7.4,2.7,8.3,3.5c-1.2,0.4-4.2,0.7-9,0.5
	c-1.2,0-2.5-0.2-3.9-0.3c-1.5-0.1-3.1-0.3-4.8-0.6c-1.4-0.2-2.9-0.4-4.5-0.7C281.9,57,282.3,55.2,282.4,53.3z M301.4,68
	c-1.2,0.2-4.3,0-9-1.1c-2-1.5-4.3-3.1-6.8-4.6c2.5,0.3,5.3,0.7,8.1,0.8C298.1,65.3,300.6,67.1,301.4,68z M344.5,49.5
	C344.5,49.5,344.5,49.5,344.5,49.5c2.4,0.7,5.1,1.4,7.9,2c-2.8,0.6-5.5,1.3-7.9,2c0,0,0,0,0,0c-4.8-0.6-7.7-1.4-8.8-2
	C336.7,50.9,339.7,50,344.5,49.5z M357.6,49.7c-1.6-0.3-3.1-0.6-4.5-0.9c0,0,0,0,0,0c-1.7-0.4-3.2-0.8-4.7-1.1h0
	c-1.4-0.4-2.6-0.7-3.8-1.1h0c-4.6-1.4-7.4-2.7-8.3-3.5c0.9-0.3,2.8-0.5,5.7-0.5c1,0,2.1,0,3.3,0.1c1.2,0.1,2.5,0.2,3.9,0.3
	c1.5,0.1,3.1,0.3,4.8,0.6c1.4,0.2,2.9,0.4,4.5,0.7C358.1,45.9,357.8,47.8,357.6,49.7z M338.6,34.9c1.2-0.2,4.3,0,9,1.1
	c2,1.5,4.3,3,6.8,4.6c-2.9-0.4-5.6-0.7-8.1-0.8C341.9,37.7,339.4,35.9,338.6,34.9z M295.2,39.2c-0.4,0.2-0.9,0.5-1.3,0.7h0
	c-2.8,0.2-5.7,0.5-8.1,0.8c2.5-1.6,4.7-3.1,6.8-4.6c4.7-1.1,7.7-1.3,9-1.1C300.7,35.8,298.7,37.3,295.2,39.2z M292.5,32.5
	c-0.4,0.3-0.8,0.6-1.2,0.9c-1,0.7-2,1.5-3.2,2.3c-1.2,0.9-2.6,1.8-4.1,2.7c-1.2,0.8-2.5,1.6-3.9,2.3c-0.8-1.7-1.7-3.3-2.8-4.8
	c1.4-0.8,2.7-1.5,4-2.2c1.5-0.8,3-1.5,4.3-2.2c1.3-0.6,2.4-1.1,3.5-1.6c4.4-1.9,7.4-2.7,8.7-2.7C297.3,28.3,295.5,30.1,292.5,32.5z
	 M288.6,26.5c-0.3,0.4-0.6,0.7-1,1.1c-2.6,1.1-5.2,2.4-7.4,3.6c1.5-2,3.3-4.3,4.8-6.7c4-2.6,6.8-3.9,8-4.1
	C292.7,21.4,291.2,23.5,288.6,26.5z M283.8,21.2c-0.3,0.4-0.5,0.8-0.8,1.3c-0.7,1-1.4,2.1-2.2,3.2c-0.9,1.2-1.8,2.5-2.9,3.9
	c-0.9,1.1-1.8,2.3-2.8,3.5c-1.3-1.4-2.7-2.6-4.3-3.6c1-1.2,2-2.3,3-3.4c1.2-1.3,2.3-2.5,3.3-3.5l0,0c1-1,1.9-1.9,2.8-2.7
	c3.5-3.3,6-5,7.2-5.5C286.9,15.5,285.8,17.9,283.8,21.2z M275,69.8c1,1.2,2,2.4,2.8,3.5c1.1,1.4,2,2.7,2.9,3.9
	c0.8,1.1,1.5,2.2,2.2,3.2c0.5,0.7,0.9,1.4,1.3,2.1c0.7,1.1,1.2,2.1,1.7,3c0.7,1.4,1,2.4,1.2,3c-1-0.4-3.2-1.8-6.1-4.4
	c-0.4-0.3-0.7-0.7-1.1-1c-0.2-0.2-0.3-0.3-0.5-0.5c-0.7-0.7-1.5-1.4-2.3-2.2c-1-1.1-2.2-2.2-3.3-3.5c-1-1-2-2.2-3-3.4
	C272.3,72.4,273.7,71.2,275,69.8z M280.2,93.3c-1-0.6-2.8-2.3-5.2-5.4c-0.3-0.4-0.6-0.8-0.9-1.2c-0.3-1.3-0.7-2.7-1.1-4.2
	c-0.3-1.2-0.7-2.4-1.1-3.7c1.2,1.3,2.4,2.5,3.5,3.7c0.7,0.8,1.5,1.5,2.2,2.1C279.4,89.1,280.2,92.1,280.2,93.3z M264.8,90.1
	c0.3,4.8,0,7.8-0.4,9c-0.8-1-2.1-3.7-3.5-8.3v0c0.3-2.8,0.5-5.7,0.6-8.2C262.6,85.3,263.7,87.8,264.8,90.1z M273.3,137.2
	c-0.7-1.9-1.5-3.7-2.3-5.3c-0.9-1.8-2-3.5-3.1-5c1.9-0.2,3.8-0.6,5.8-1.1c2-0.6,4-1.3,6.1-2.2c1.2-0.5,1.2-2.2,0-2.8
	c-2-1-4-1.8-6-2.4c-1.9-0.6-3.8-1-5.7-1.3c1.2-1.5,2.3-3.1,3.3-4.9c0.4-0.8,0.9-1.6,1.3-2.5h54.7c-0.3,0.9-0.6,1.9-0.9,2.8
	c-2.9,9-11.6-2.7-12.9,8.4c-8.8-7.2-6.8,7.3-15,2.9c-2.3-1.3-4.7-2.5-7.1-3.6c-2.2,1.5-4.3,3.2-6.3,4.9c-2.8,2.4-5.4,5-7.9,7.6
	C275.8,134.1,274.5,135.6,273.3,137.2z M320,91.3c-4.9,0-8.9-3.9-9-8.8v-0.2c0-4.7,3.6-8.5,8.2-9c0.3,0,0.5,0,0.8,0
	c0.3,0,0.6,0,0.8,0c4.6,0.4,8.2,4.3,8.2,9v0.2C328.9,87.4,324.9,91.3,320,91.3z M342.1,75.7c0.6-1,2.3-2.8,5.4-5.2
	c0.4-0.3,0.8-0.6,1.2-0.9c1-0.7,2-1.5,3.2-2.3c0,0,0,0,0,0c1.2-0.8,2.6-1.8,4.1-2.7h0c1.2-0.8,2.5-1.5,3.9-2.3
	c0.8,1.7,1.7,3.3,2.8,4.8c-1.4,0.8-2.7,1.5-4,2.2c-1.5,0.8-3,1.5-4.3,2.2c-1.3,0.6-2.4,1.1-3.5,1.6
	C346.3,74.9,343.4,75.7,342.1,75.7z M352.4,75.4c2.6-1.1,5.2-2.4,7.4-3.6c-1.5,2-3.3,4.3-4.8,6.7c-4,2.6-6.8,3.9-8,4.1
	C347.4,81.4,349.1,78.9,352.4,75.4z M355.7,82.6c0.2-0.3,0.3-0.5,0.5-0.8c0.3-0.4,0.5-0.8,0.8-1.3c0.7-1,1.4-2.1,2.2-3.2
	c0.9-1.2,1.8-2.5,2.9-3.9c0.9-1.1,1.8-2.3,2.8-3.5c1.3,1.3,2.7,2.5,4.3,3.6c-1,1.2-2,2.4-3,3.4c-1.2,1.3-2.3,2.5-3.3,3.5
	c-0.8,0.8-1.5,1.5-2.3,2.2c-0.2,0.2-0.4,0.3-0.5,0.5c-3.5,3.3-6,5-7.2,5.5C353.1,87.5,354,85.5,355.7,82.6z M376,81.4
	c-0.2,0.4-0.3,0.8-0.5,1.2c-0.5,1.2-1,2.3-1.4,3.3c-0.6,1.3-1.2,2.4-1.7,3.5c-2.2,4.3-4,6.8-4.9,7.6c-0.1-0.3-0.1-0.6-0.1-1
	c0-1.6,0.3-4.3,1.2-8c0.3-1.2,0.6-2.4,1-3.8c0.1-0.5,0.3-1.1,0.5-1.6c0.3-1,0.6-2,0.9-3c0.4-1.4,0.9-2.8,1.5-4.3
	c1.7,0.8,3.4,1.5,5.3,1.9C377.1,78.6,376.5,80,376,81.4z M378.5,82.6c0.1,2.5,0.3,5.4,0.6,8.2c-1.4,4.6-2.7,7.3-3.5,8.3
	c-0.3-0.9-0.5-2.8-0.5-5.7c0-1,0-2.1,0.1-3.3C376.3,87.8,377.4,85.3,378.5,82.6z M367.1,82.6c-0.4,1.5-0.8,2.8-1.1,4.2
	c-2.9,3.8-5.1,6-6.1,6.6c0-1.3,0.8-4.2,2.7-8.7c0.7-0.7,1.4-1.4,2.2-2.1c1.1-1.2,2.3-2.4,3.5-3.7C367.8,80.1,367.4,81.4,367.1,82.6z
	 M411.8,109.7c0.3,0.7,0.6,1.3,1,2c0.9,1.8,2,3.5,3.2,5c-1.9,0.2-3.8,0.6-5.8,1.1c-2,0.6-4,1.3-6,2.2c-1.2,0.5-1.2,2.2,0,2.8
	c2,1,4,1.8,6,2.4c1.9,0.6,3.8,1,5.8,1.3c-1.2,1.5-2.3,3.1-3.3,4.9c-0.9,1.5-1.6,3.1-2.3,4.9c-1.1-1.4-2.2-2.7-3.4-4
	c-2.4-2.6-4.9-5.1-7.5-7.4c-2-1.7-4-3.4-6.2-4.9c-2.5,1.2-4.9,2.4-7.3,3.6c-8.5,4.5-6.3-10-15.2-2.8c-1-11.1-10,0.6-12.6-8.4
	c-0.3-0.9-0.5-1.8-0.8-2.7H411.8z M381.2,77.8c0.9,0.1,1.8,0.1,2.8,0.1s1.9-0.1,2.8-0.1c0,1.6,0,3.1-0.1,4.5c0,0,0,0,0,0
	c0,0.1,0,0.2,0,0.2c-0.1,1.7-0.2,3.2-0.3,4.6c-0.1,1.4-0.3,2.7-0.4,3.9c-0.3,2.4-0.6,4.3-1,5.8c-0.4,1.5-0.7,2.5-1,3
	c-0.6-1.1-1.4-4-2-8.8c-0.1-1.2-0.3-2.5-0.4-3.9c-0.1-1.4-0.2-2.9-0.3-4.6c0-0.1,0-0.2,0-0.2C381.3,80.9,381.2,79.4,381.2,77.8z
	 M398,82.6c0.2,0.6,0.3,1.1,0.5,1.6c0.4,1.3,0.7,2.6,1,3.8c1.1,4.7,1.3,7.8,1.1,9c-0.9-0.8-2.7-3.3-4.9-7.6
	c-0.5-1.1-1.1-2.2-1.7-3.5c-0.5-1-0.9-2.1-1.4-3.3c-0.2-0.4-0.3-0.8-0.5-1.2c-0.5-1.3-1.1-2.7-1.6-4.2c1.8-0.5,3.6-1.1,5.3-1.9
	c0.5,1.5,1,2.9,1.5,4.3v0C397.4,80.6,397.7,81.6,398,82.6z M409.3,33.7c1.5-0.8,3-1.5,4.3-2.2c1.3-0.6,2.4-1.1,3.5-1.6
	c4.4-1.9,7.4-2.7,8.7-2.7c-0.6,1-2.3,2.8-5.4,5.2c-0.4,0.3-0.8,0.6-1.2,0.9c-1,0.7-2,1.5-3.2,2.3c-1.2,0.9-2.6,1.8-4.1,2.7
	c-1.2,0.8-2.5,1.6-3.9,2.3c-0.8-1.7-1.7-3.3-2.8-4.8C406.7,35.1,408.1,34.4,409.3,33.7z M408.2,31.2c1.5-2,3.3-4.3,4.8-6.7
	c4-2.6,6.8-3.9,8-4.1c-0.4,1-1.8,3.2-4.4,6.1c-0.3,0.4-0.6,0.7-1,1.1C413,28.7,410.4,30,408.2,31.2z M428.6,25.7
	c-0.2-0.4-0.5-0.7-1-0.8c13.2-2.8,30.9,3.9,38.5,7.3c-1.4,0.2-2.2,0.8-2.5,1.7c-0.6,1.7,0.8,3.5,4.6,5.9c-4.5,0.2-6.6,1-6.9,2.8
	c-0.1,0.3,0,0.6,0,1c-8.3-2.6-21.1-6.3-30.3-6.2c1.3-1.3,1.7-2.4,1.3-3.4c-0.6-1.7-2.8-2.2-7.3-1.5
	C428.4,29.3,429.5,27.3,428.6,25.7z M478.8,30c1.1,0.5,2.3,1,3.5,1.6c1.3,0.6,2.8,1.4,4.3,2.2c1.3,0.7,2.6,1.4,4,2.2
	c-1.1,1.5-2,3.1-2.8,4.8c-1.4-0.8-2.7-1.6-3.9-2.3h0c-1.5-0.9-2.8-1.8-4.1-2.7c0,0,0,0,0,0c-1.2-0.8-2.2-1.6-3.2-2.3
	c-3.8-2.9-6-5.1-6.6-6.2C471.4,27.3,474.3,28.1,478.8,30z M475,20.4c1.2,0.2,4,1.5,8,4.1c1.6,2.4,3.3,4.7,4.8,6.7
	c-2.2-1.1-4.8-2.4-7.4-3.6C477.1,24.1,475.4,21.6,475,20.4z M494.3,76.8c-1.2,1.3-2.3,2.5-3.3,3.5c-0.8,0.8-1.5,1.5-2.3,2.2
	c-0.2,0.2-0.4,0.3-0.5,0.5c-3.5,3.3-6,5-7.2,5.5c0.2-1,1.1-3.1,2.8-6c0.2-0.3,0.3-0.5,0.5-0.8c0.3-0.4,0.5-0.8,0.8-1.3
	c0.7-1,1.4-2.1,2.2-3.2c0.9-1.2,1.8-2.5,2.9-3.9c0.9-1.1,1.8-2.3,2.8-3.5c1.3,1.3,2.7,2.5,4.3,3.6C496.2,74.6,495.2,75.8,494.3,76.8
	z M496.2,78.9c-0.4,1.3-0.8,2.5-1.1,3.7c-0.4,1.5-0.8,2.8-1.1,4.2c-2.9,3.8-5.1,6-6.1,6.6c0-1.3,0.8-4.2,2.7-8.7
	c0.7-0.7,1.4-1.4,2.2-2.1C493.8,81.4,495,80.2,496.2,78.9z M425.1,70.6c1.3,0.2,2.3,0.3,3.2,0.3c2.4,0,3.6-0.6,4.1-1.8
	c0.2-0.6,0.2-1.2-0.1-1.9l9.5,3.9c-4,2.2-6.8,6.5-6.8,11.4h-11.1c-0.2-1.3-1.1-2.9-2.8-5.1c1.8,0.6,3.5,0.9,4.8,0.9s2.3-0.3,2.7-1.1
	C429.5,75.7,428.4,73.7,425.1,70.6z M413.9,43.5L413.9,43.5c1.7-0.3,3.4-0.4,4.8-0.6c0,0,0,0,0,0c1.4-0.1,2.7-0.2,3.9-0.3
	c4.8-0.2,7.8,0,9,0.5c-1,0.8-3.7,2.1-8.3,3.5c-1.1,0.3-2.4,0.7-3.8,1.1c-1.4,0.4-3,0.8-4.7,1.1c-1.4,0.3-2.9,0.6-4.5,0.9
	c-0.1-1.9-0.5-3.7-1-5.5C411,43.9,412.5,43.7,413.9,43.5z M413.7,40.7c2.5-1.6,4.7-3.1,6.8-4.6c4.7-1.1,7.7-1.3,9-1.1
	c-0.7,0.8-2.8,2.3-6.3,4.2c-0.4,0.2-0.9,0.5-1.3,0.7h0C419,40,416.2,40.3,413.7,40.7z M434.7,42.5c-0.1-0.4-0.3-0.8-0.7-1.2
	c9.8,0.7,23.3,5,29.7,7.1c-2,0.8-3.2,1.7-3.2,3c0,1.9,2.7,3.1,6.3,3.9c-4.2,1.7-5.9,3.2-5.6,5c0.2,1.1,1.1,1.9,2.8,2.3L448,69.4
	l-16.3-6.7c1.7-0.4,2.8-1.1,3-2.3c0.3-1.8-1.4-3.3-5.6-5c3.7-0.8,6.4-2.1,6.4-3.9c0-1.9-2.7-3.1-6.4-3.9
	C433.3,45.8,435,44.3,434.7,42.5z M482.1,59.5c-1.7,0.2-3.3,0.4-4.8,0.6c-1.4,0.1-2.7,0.2-3.9,0.3c-4.8,0.3-7.8,0-9-0.5
	c1-0.8,3.7-2.1,8.3-3.5h0c1.1-0.3,2.4-0.7,3.8-1h0c1.4-0.4,3-0.8,4.7-1.1c0,0,0,0,0,0c1.4-0.3,2.9-0.6,4.5-0.9
	c0.1,1.9,0.5,3.7,1,5.5C485,59.1,483.5,59.3,482.1,59.5z M482.3,62.3c-2.5,1.6-4.8,3.1-6.8,4.6c-4.7,1.1-7.7,1.3-9,1.1
	c0.7-0.9,2.8-2.3,6.3-4.2c0.4-0.2,0.9-0.5,1.3-0.7C476.7,63,479.4,62.7,482.3,62.3z M485.6,49.7c-1.6-0.3-3.1-0.6-4.5-0.9
	c0,0,0,0,0,0c-1.7-0.4-3.2-0.8-4.7-1.1h0c-1.4-0.4-2.6-0.7-3.8-1.1h0c-4.6-1.4-7.4-2.7-8.3-3.5c0.9-0.3,2.8-0.5,5.7-0.5
	c1,0,2.1,0,3.3,0.1c1.2,0.1,2.5,0.2,3.9,0.3c1.5,0.1,3.1,0.3,4.8,0.6c1.4,0.2,2.9,0.4,4.5,0.7C486.1,45.9,485.8,47.8,485.6,49.7z
	 M472.5,49.5C472.5,49.5,472.5,49.5,472.5,49.5c2.4,0.7,5.1,1.4,7.9,2c-2.8,0.6-5.5,1.3-7.9,2c0,0,0,0,0,0c-4.8-0.6-7.7-1.4-8.8-2
	C464.7,50.9,467.7,50,472.5,49.5z M423.5,53.5C423.5,53.5,423.5,53.5,423.5,53.5c-2.4-0.7-5.1-1.4-7.9-2c2.8-0.6,5.5-1.3,7.9-2
	c4.8,0.6,7.7,1.4,8.8,2C431.3,52.1,428.3,52.9,423.5,53.5z M410.4,53.3c1.6,0.3,3.1,0.6,4.5,0.9c0,0,0,0,0,0h0
	c1.7,0.4,3.2,0.8,4.7,1.1h0c1.4,0.3,2.6,0.7,3.7,1h0c4.6,1.4,7.4,2.7,8.3,3.5c-1.2,0.4-4.2,0.7-9,0.5c-1.2,0-2.5-0.2-3.9-0.3
	c-1.5-0.1-3.1-0.3-4.8-0.6c-1.4-0.2-2.9-0.4-4.5-0.7C409.9,57,410.3,55.2,410.4,53.3z M421.9,63.1c4.3,2.2,6.8,4,7.6,4.9
	c-1.2,0.2-4.3,0-9-1.1c-2-1.5-4.3-3.1-6.8-4.6C416.2,62.6,419,62.9,421.9,63.1z M448,73.6c5,0,9,4,9,9s-4,9-9,9c-5,0-9-4-9-9
	S443,73.6,448,73.6z M454.2,71.2l9.5-3.9c-0.3,0.7-0.3,1.3-0.1,1.9c0.4,1.2,1.7,1.8,4.1,1.8c0.9,0,2-0.1,3.2-0.3
	c-3.4,3-4.4,5-3.5,6.6c0.5,0.8,1.4,1.1,2.7,1.1s2.9-0.3,4.8-0.9c-1.7,2.2-2.6,3.8-2.8,5.1H461C461,77.7,458.3,73.4,454.2,71.2z
	 M470.1,75.7c0.6-1,2.3-2.8,5.4-5.2c0.4-0.3,0.8-0.6,1.2-0.9c1-0.7,2-1.5,3.2-2.3c0,0,0,0,0,0c1.2-0.8,2.6-1.8,4.1-2.7h0
	c1.2-0.8,2.5-1.5,3.9-2.3c0.8,1.7,1.7,3.3,2.8,4.8c-1.4,0.8-2.7,1.5-4,2.2c-1.5,0.8-3,1.5-4.3,2.2c-1.3,0.6-2.4,1.1-3.5,1.6
	C474.3,74.9,471.4,75.7,470.1,75.7z M480.4,75.4c2.6-1.1,5.2-2.4,7.4-3.6c-1.5,2-3.3,4.3-4.8,6.7c-4,2.6-6.8,3.9-8,4.1
	C475.4,81.4,477.1,78.9,480.4,75.4z M475.5,36c2,1.5,4.3,3,6.8,4.6c-2.9-0.4-5.6-0.7-8.1-0.8c-4.3-2.2-6.8-4-7.6-4.9
	C467.8,34.7,470.8,35,475.5,36z M408.2,62.2c1.4,0.8,2.7,1.6,3.9,2.3c0,0,0,0,0,0h0c1.5,0.9,2.8,1.8,4.1,2.7c0,0,0,0,0,0
	c1.2,0.8,2.2,1.5,3.2,2.3c3.8,2.9,6,5.1,6.6,6.1c-1.3,0-4.2-0.8-8.7-2.7c-1.1-0.5-2.3-1-3.5-1.6c-1.3-0.6-2.8-1.4-4.3-2.2
	c-1.3-0.7-2.6-1.4-4-2.2C406.5,65.5,407.4,63.9,408.2,62.2z M421,82.6c-1.2-0.2-4-1.5-8-4.1c-1.6-2.4-3.3-4.7-4.8-6.7
	c2.2,1.2,4.8,2.4,7.4,3.6C418.9,78.9,420.6,81.4,421,82.6z M405.9,73.3c1.1,1.4,2,2.7,2.9,3.9c0.8,1.1,1.5,2.2,2.2,3.2
	c0.5,0.7,0.9,1.4,1.3,2.1c0.7,1.1,1.2,2.1,1.7,3c0.7,1.4,1,2.4,1.2,3c-1-0.4-3.2-1.8-6.1-4.4c-0.4-0.3-0.7-0.7-1.1-1
	c-0.2-0.2-0.3-0.3-0.5-0.5c-0.7-0.7-1.5-1.4-2.3-2.2c-1-1.1-2.2-2.2-3.3-3.5c-1-1-2-2.2-3-3.4c1.5-1,3-2.3,4.3-3.6
	C404,71,405,72.2,405.9,73.3z M408.2,93.3c-1-0.6-2.8-2.3-5.2-5.4c-0.3-0.4-0.6-0.8-0.9-1.2c-0.3-1.3-0.7-2.7-1.1-4.2
	c-0.3-1.2-0.7-2.4-1.1-3.7c1.2,1.3,2.4,2.5,3.5,3.7c0.7,0.8,1.5,1.5,2.2,2.1C407.4,89.1,408.2,92.1,408.2,93.3z M392.8,90.1
	c0.3,4.8,0,7.8-0.4,9c-0.8-1-2.1-3.7-3.5-8.3v0c0.3-2.8,0.5-5.7,0.6-8.2C390.6,85.3,391.7,87.8,392.8,90.1z M444.7,136.2
	c-0.6-1.5-1.3-3-2-4.4c-0.9-1.8-2-3.5-3.1-5c1.9-0.2,3.8-0.6,5.8-1.1c2-0.6,4-1.3,6.1-2.2c1.2-0.5,1.2-2.2,0-2.8c-2-1-4-1.8-6-2.4
	c-1.9-0.6-3.9-1-5.7-1.3c1.2-1.5,2.3-3.1,3.3-4.9c0.4-0.8,0.9-1.6,1.3-2.5h53.6c-0.3,0.9-0.6,1.9-0.9,2.8c-2.9,9-11.6-2.7-12.9,8.4
	c-8.8-7.2-6.8,7.3-15,2.9c-2.3-1.3-4.7-2.5-7.1-3.6c-2.2,1.5-4.3,3.2-6.3,4.9c-2.8,2.4-5.4,5-7.9,7.6
	C446.7,133.8,445.7,135,444.7,136.2z M503.6,3.9c0.8,1,2.1,3.7,3.5,8.3v0c-0.3,2.8-0.5,5.7-0.6,8.2c-1.1-2.7-2.3-5.2-3.4-7.4
	C502.9,8.1,503.2,5,503.6,3.9z M495.5,6c0.9,0.8,2.7,3.3,4.9,7.6c0.5,1,1.1,2.2,1.7,3.5c0.6,1.4,1.3,2.8,1.9,4.5
	c0.5,1.3,1.1,2.7,1.6,4.2c-1.8,0.5-3.6,1.1-5.3,1.9c-0.5-1.5-1-2.9-1.5-4.3c-0.5-1.7-1-3.2-1.4-4.7c-0.4-1.3-0.7-2.6-1-3.8
	C495.5,10.3,495.3,7.3,495.5,6z M493.1,15c0.3,0.4,0.6,0.8,0.9,1.2c0.6,2.4,1.3,5.1,2.2,7.9c-2-2.1-3.9-4.1-5.7-5.8
	c-1.9-4.4-2.7-7.4-2.7-8.7C488.8,10.2,490.6,11.9,493.1,15z M488.1,19.9c0.9,0.8,1.8,1.7,2.8,2.7c1,1.1,2.2,2.3,3.3,3.5
	c1,1,2,2.2,3,3.4c-1.5,1-3,2.3-4.3,3.6c-1-1.2-2-2.4-2.8-3.5c-1.1-1.4-2-2.7-2.9-3.9c-0.8-1.1-1.5-2.2-2.2-3.2v0
	c-2.6-4-3.9-6.8-4.1-8c1,0.4,3.2,1.8,6.1,4.4C487.4,19.2,487.8,19.5,488.1,19.9z M483.8,5.9c0.9,0.3,1.7,0.6,2.5,1
	c-1.5,0.9-1.6,3.2-0.2,7.4c-3.6-2.8-5.7-3.4-7.1-2.3c-0.9,0.8-0.9,2.2-0.4,4c-3.9-2.3-10-4.9-17.1-7C470.4,5.1,478,4,483.8,5.9z
	 M417.1,12c-0.3-0.3-0.6-0.4-1-0.5c14.7-7.5,43.8-0.5,57.3,6.2c-0.3,0.1-0.6,0.3-0.8,0.6c-1.2,1.4-0.5,3.5,2.3,7.1
	c-3.6-1.1-6.5-1.4-7.5,0.2c-0.4,0.8-0.4,1.6,0.1,2.7c-8.8-3.9-29.3-11.6-44.1-6.5c0.7-1.6,0.7-2.7,0-3.5c-1.1-1.4-3.4-1.1-7.4,1.1
	C417.8,16.1,418.5,13.2,417.1,12z M415.1,14.4c-0.2,1.1-1.2,3.4-3.3,6.8c-0.3,0.4-0.5,0.8-0.8,1.3c-0.7,1-1.4,2.1-2.2,3.2
	c-0.9,1.2-1.8,2.5-2.9,3.9c-0.9,1.1-1.8,2.3-2.8,3.5c-1.3-1.4-2.7-2.6-4.3-3.6c1-1.2,2-2.3,3-3.4c1.2-1.3,2.3-2.5,3.3-3.5l0,0
	c1-1,1.9-1.9,2.8-2.7C411.4,16.6,413.9,14.9,415.1,14.4z M402,16.2c2.9-3.8,5.1-6,6.1-6.6c0,1.3-0.8,4.2-2.7,8.7
	c-1.8,1.7-3.7,3.7-5.7,5.8C400.7,21.3,401.5,18.7,402,16.2z M393.9,17.1L393.9,17.1c0.6-1.3,1.2-2.4,1.7-3.5v0c0,0,0,0,0,0
	c2.2-4.3,4-6.8,4.9-7.6c0.1,0.3,0.1,0.6,0.1,1c0,1.6-0.3,4.3-1.2,8c-0.3,1.1-0.6,2.4-1,3.8c-0.4,1.5-0.9,3-1.4,4.7
	c-0.4,1.4-0.9,2.8-1.5,4.3c-1.7-0.8-3.4-1.5-5.3-1.9c0.6-1.5,1.1-2.9,1.6-4.2v0C392.7,20,393.3,18.5,393.9,17.1L393.9,17.1z
	 M392.4,3.9c0.3,0.9,0.5,2.8,0.5,5.7c0,1,0,2.1-0.1,3.4c-1.1,2.2-2.3,4.7-3.4,7.4c-0.1-2.5-0.3-5.4-0.6-8.1
	C390.3,7.6,391.6,4.8,392.4,3.9z M381.3,20.7C381.3,20.7,381.3,20.7,381.3,20.7c0.1-1.8,0.2-3.4,0.3-4.9c0.1-1.4,0.3-2.7,0.4-3.8v0
	c0.6-4.8,1.4-7.7,2-8.8c0.6,1.1,1.4,4,2,8.8c0.1,1.2,0.3,2.5,0.4,3.8c0.1,1.5,0.2,3.1,0.3,4.8c0,1.4,0.1,3,0.1,4.5
	c-0.9-0.1-1.8-0.2-2.8-0.2s-1.9,0.1-2.8,0.2C381.2,23.6,381.3,22.1,381.3,20.7z M384,38.1c7.4,0,13.3,6,13.3,13.3
	c0,7.4-6,13.3-13.3,13.3s-13.3-6-13.3-13.3C370.7,44.1,376.6,38.1,384,38.1z M375.6,3.9c0.8,1,2.1,3.7,3.5,8.3v0
	c-0.3,2.8-0.5,5.7-0.6,8.2c-1.1-2.7-2.3-5.2-3.4-7.4C374.9,8.1,375.2,5,375.6,3.9z M367.5,6c0.9,0.8,2.7,3.3,4.9,7.6
	c0.5,1,1.1,2.2,1.7,3.5c0.6,1.4,1.3,2.8,1.9,4.5c0.5,1.3,1.1,2.7,1.6,4.2c-1.8,0.5-3.6,1.1-5.3,1.9c-0.5-1.5-1-2.9-1.5-4.3
	c-0.5-1.7-1-3.2-1.4-4.7c-0.4-1.3-0.7-2.6-1-3.8C367.5,10.3,367.3,7.3,367.5,6z M365.1,15c0.3,0.4,0.6,0.8,0.9,1.2
	c0.6,2.4,1.3,5.1,2.2,7.9c-2-2.1-3.9-4.1-5.7-5.8c-1.9-4.4-2.7-7.4-2.7-8.7C360.8,10.2,362.6,11.9,365.1,15z M359,18.9
	c0.4,0.3,0.7,0.7,1.1,1c0.9,0.8,1.8,1.7,2.8,2.7c1,1.1,2.2,2.3,3.3,3.5c1,1,2,2.2,3,3.4c-1.5,1-3,2.3-4.3,3.6c-1-1.2-2-2.4-2.8-3.5
	c-1.1-1.4-2-2.7-2.9-3.9c-0.8-1.1-1.5-2.2-2.2-3.2v0c-2.6-4-3.9-6.8-4.1-8C354,14.8,356.1,16.3,359,18.9z M351.4,11.7
	c-0.2,0.1-0.3,0.2-0.5,0.3c-1.4,1.2-0.7,4.1,1.1,7.4c-4-2.1-6.3-2.4-7.4-1.1c-0.8,0.9-0.7,2.2,0.2,3.9c-14.8-5.6-35.5,2.2-44.4,6.2
	c0.6-1.1,0.6-2,0.2-2.8c-0.9-1.6-3.9-1.4-7.5-0.2c2.8-3.6,3.5-5.7,2.3-7.1c-0.2-0.3-0.5-0.5-0.8-0.6
	C308.1,11.2,336.8,4.3,351.4,11.7z M284,6c5.7-1.9,13.4-0.8,22.3,3.1c-7.1,2.1-13,4.7-16.8,7c0.6-1.8,0.5-3.3-0.4-4
	c-1.4-1.1-3.5-0.5-7.1,2.3c1.4-4.2,1.3-6.5-0.2-7.4C282.5,6.6,283.2,6.3,284,6z M274,16.2c2.9-3.8,5.1-6,6.1-6.6
	c0,1.3-0.8,4.2-2.7,8.7c-1.8,1.7-3.7,3.7-5.7,5.8C272.7,21.3,273.5,18.7,274,16.2z M265.9,17.1L265.9,17.1c0.6-1.3,1.2-2.4,1.7-3.5
	v0c0,0,0,0,0,0c2.2-4.3,4-6.8,4.9-7.6c0.1,0.3,0.1,0.6,0.1,1c0,1.6-0.3,4.3-1.2,8c-0.3,1.1-0.6,2.4-1,3.8c-0.4,1.5-0.9,3-1.4,4.7
	c-0.4,1.4-0.9,2.8-1.5,4.3c-1.7-0.8-3.4-1.5-5.3-1.9c0.6-1.5,1.1-2.9,1.6-4.2v0C264.7,20,265.3,18.5,265.9,17.1L265.9,17.1z
	 M264.4,3.9c0.3,0.9,0.5,2.8,0.5,5.7c0,1,0,2.1-0.1,3.4c-1.1,2.2-2.3,4.7-3.4,7.4c-0.1-2.5-0.3-5.4-0.6-8.1
	C262.3,7.6,263.6,4.8,264.4,3.9z M253.3,20.7C253.3,20.7,253.3,20.7,253.3,20.7c0.1-1.8,0.2-3.4,0.3-4.9c0.1-1.4,0.3-2.7,0.4-3.8v0
	c0.6-4.8,1.4-7.7,2-8.8c0.6,1.1,1.4,4,2,8.8c0.1,1.2,0.3,2.5,0.4,3.8c0.1,1.5,0.2,3.1,0.3,4.8c0,1.4,0.1,3,0.1,4.5
	c-0.9-0.1-1.8-0.2-2.8-0.2s-1.9,0.1-2.8,0.2C253.2,23.6,253.3,22.1,253.3,20.7z M256,38.1c7.4,0,13.3,6,13.3,13.3
	c0,7.4-6,13.3-13.3,13.3s-13.3-6-13.3-13.3C242.7,44.1,248.6,38.1,256,38.1z M247.6,3.9c0.8,1,2.1,3.7,3.5,8.3v0
	c-0.3,2.8-0.5,5.7-0.6,8.2c-1.1-2.7-2.3-5.2-3.4-7.4C246.9,8.1,247.2,5,247.6,3.9z M239.5,6c0.9,0.8,2.7,3.3,4.9,7.6
	c0.5,1,1.1,2.2,1.7,3.5c0.6,1.4,1.3,2.8,1.9,4.5c0.5,1.3,1.1,2.7,1.6,4.2c-1.8,0.5-3.6,1.1-5.3,1.9c-0.5-1.5-1-2.9-1.5-4.3
	c-0.5-1.7-1-3.2-1.4-4.7c-0.4-1.3-0.7-2.6-1-3.8C239.5,10.3,239.3,7.3,239.5,6z M237.1,15c0.3,0.4,0.6,0.8,0.9,1.2
	c0.6,2.4,1.3,5.1,2.2,7.9c-2-2.1-3.9-4.1-5.7-5.8c-1.9-4.4-2.7-7.4-2.7-8.7C232.8,10.2,234.6,11.9,237.1,15z M232.1,19.9
	c0.9,0.8,1.8,1.7,2.8,2.7c1,1.1,2.2,2.3,3.3,3.5c1,1,2,2.2,3,3.4c-1.5,1-3,2.3-4.3,3.6c-1-1.2-2-2.4-2.8-3.5c-1.1-1.4-2-2.7-2.9-3.9
	c-0.8-1.1-1.5-2.2-2.2-3.2v0c-2.6-4-3.9-6.8-4.1-8c1,0.4,3.2,1.8,6.1,4.4C231.4,19.2,231.8,19.5,232.1,19.9z M228.4,6
	c0.8,0.2,1.4,0.5,2,0.8c-0.1,0-0.1,0.1-0.2,0.1c-1.5,0.9-1.6,3.2-0.3,7.4c-3.6-2.8-5.7-3.4-7.1-2.3c-0.9,0.7-0.9,2.1-0.5,3.7
	c-3.9-2.2-9.7-4.6-16.3-6.6C215,5.2,222.7,4.1,228.4,6z M161.1,12c-0.2-0.1-0.3-0.2-0.5-0.3c14.6-7.6,43.4-0.7,57,6
	c-0.4,0.1-0.8,0.4-1,0.7c-1.2,1.4-0.5,3.5,2.3,7.1c-3.6-1.1-6.5-1.4-7.5,0.2c-0.4,0.7-0.4,1.5,0,2.5c-9.3-4-29.8-11.4-44.2-5.9
	c0.9-1.8,1-3,0.2-4c-1.1-1.4-3.4-1.1-7.4,1.1C161.8,16.1,162.5,13.2,161.1,12z M159.1,14.4c-0.2,1.1-1.2,3.4-3.3,6.8
	c-0.3,0.4-0.5,0.8-0.8,1.3c-0.7,1-1.4,2.1-2.2,3.2c-0.9,1.2-1.8,2.5-2.9,3.9c-0.9,1.1-1.8,2.3-2.8,3.5c-1.3-1.4-2.7-2.6-4.3-3.6
	c1-1.2,2-2.3,3-3.4c1.2-1.3,2.3-2.5,3.3-3.5l0,0c1-1,1.9-1.9,2.8-2.7C155.4,16.6,157.9,14.9,159.1,14.4z M146,16.2
	c2.9-3.8,5.1-6,6.1-6.6c0,1.3-0.8,4.2-2.7,8.7c-1.8,1.7-3.7,3.7-5.7,5.8C144.7,21.3,145.5,18.7,146,16.2z M137.9,17.1L137.9,17.1
	c0.6-1.3,1.2-2.4,1.7-3.5v0c0,0,0,0,0,0c2.2-4.3,4-6.8,4.9-7.6c0.1,0.3,0.1,0.6,0.1,1c0,1.6-0.3,4.3-1.2,8c-0.3,1.1-0.6,2.4-1,3.8
	c-0.4,1.5-0.9,3-1.4,4.7c-0.4,1.4-0.9,2.8-1.5,4.3c-1.7-0.8-3.4-1.5-5.3-1.9c0.6-1.5,1.1-2.9,1.6-4.2v0
	C136.7,20,137.3,18.5,137.9,17.1L137.9,17.1z M136.4,3.9c0.3,0.9,0.5,2.8,0.5,5.7c0,1,0,2.1-0.1,3.4c-1.1,2.2-2.3,4.7-3.4,7.4
	c-0.1-2.5-0.3-5.4-0.6-8.1C134.3,7.6,135.6,4.8,136.4,3.9z M125.3,20.7C125.3,20.7,125.3,20.7,125.3,20.7c0.1-1.8,0.2-3.4,0.3-4.9
	c0.1-1.4,0.3-2.7,0.4-3.8v0c0.6-4.8,1.4-7.7,2-8.8c0.6,1.1,1.4,4,2,8.8c0.1,1.2,0.3,2.5,0.4,3.8c0.1,1.5,0.2,3.1,0.3,4.8
	c0,1.4,0.1,3,0.1,4.5c-0.9-0.1-1.8-0.2-2.8-0.2s-1.9,0.1-2.8,0.2C125.2,23.6,125.3,22.1,125.3,20.7z M128,38.1
	c7.4,0,13.3,6,13.3,13.3c0,7.4-6,13.3-13.3,13.3s-13.3-6-13.3-13.3C114.7,44.1,120.6,38.1,128,38.1z M119.6,3.9
	c0.8,1,2.1,3.7,3.5,8.3v0c-0.3,2.8-0.5,5.7-0.6,8.2c-1.1-2.7-2.3-5.2-3.4-7.4C118.9,8.1,119.2,5,119.6,3.9z M111.5,6
	c0.9,0.8,2.7,3.3,4.9,7.6c0.5,1,1.1,2.2,1.7,3.5c0.6,1.4,1.3,2.8,1.9,4.5c0.5,1.3,1.1,2.7,1.6,4.2c-1.8,0.5-3.6,1.1-5.3,1.9
	c-0.5-1.5-1-2.9-1.5-4.3c-0.5-1.7-1-3.2-1.4-4.7c-0.4-1.3-0.7-2.6-1-3.8C111.5,10.3,111.3,7.3,111.5,6z M109.1,15
	c0.3,0.4,0.6,0.8,0.9,1.2c0.6,2.4,1.3,5.1,2.2,7.9c-2-2.1-3.9-4.1-5.7-5.8c-1.9-4.4-2.7-7.4-2.7-8.7C104.8,10.2,106.6,11.9,109.1,15
	z M103,18.9c0.4,0.3,0.7,0.7,1.1,1c0.9,0.8,1.8,1.7,2.8,2.7c1,1.1,2.2,2.3,3.3,3.5c1,1,2,2.2,3,3.4c-1.5,1-3,2.3-4.3,3.6
	c-1-1.2-2-2.4-2.8-3.5c-1.1-1.4-2-2.7-2.9-3.9c-0.8-1.1-1.5-2.2-2.2-3.2v0c-2.6-4-3.9-6.8-4.1-8C98,14.8,100.1,16.3,103,18.9z
	 M95.4,11.7c-0.2,0.1-0.3,0.2-0.5,0.3c-1.4,1.2-0.7,4.1,1.1,7.4c-4-2.1-6.3-2.4-7.4-1.1c-0.8,0.9-0.7,2.2,0.2,3.9
	c-14.7-5.6-35.3,2.1-44.3,6.1c0.5-1.1,0.6-1.9,0.1-2.7c-0.9-1.6-3.9-1.4-7.5-0.2c2.8-3.6,3.5-5.7,2.3-7.1c-0.2-0.3-0.5-0.5-0.8-0.6
	C52.1,11.2,80.8,4.3,95.4,11.7z M28,6c5.7-1.8,13.3-0.7,22.2,3.1c-7,2.1-12.9,4.7-16.8,6.9c0.6-1.8,0.5-3.2-0.4-4
	c-1.4-1.1-3.5-0.5-7.1,2.3c1.4-4.3,1.3-6.5-0.2-7.4C26.4,6.6,27.2,6.3,28,6z M18,16.2c2.9-3.8,5.1-6,6.1-6.6c0,1.3-0.8,4.2-2.7,8.7
	c-1.8,1.7-3.7,3.7-5.7,5.8C16.7,21.3,17.5,18.7,18,16.2z M4.9,12.2c1.4-4.6,2.7-7.3,3.5-8.3C8.7,4.7,9,6.6,9,9.5c0,1,0,2.1-0.1,3.4
	c-1.1,2.2-2.3,4.7-3.4,7.4C5.4,17.8,5.2,15,4.9,12.2z M13.1,23.4c-0.4,1.4-0.9,2.8-1.5,4.3c-1.7-0.8-3.4-1.5-5.3-1.9
	c0.6-1.5,1.1-2.9,1.6-4.2v0c0.7-1.6,1.3-3.1,1.9-4.5v0l0,0c0.6-1.3,1.1-2.4,1.7-3.5v0c0,0,0,0,0,0c2.2-4.3,4-6.8,4.9-7.6
	c0.1,0.3,0.1,0.6,0.1,1c0,1.6-0.3,4.3-1.2,8c-0.3,1.1-0.6,2.4-1,3.8C14.1,20.2,13.6,21.8,13.1,23.4z M11.6,75.2
	c0.5,1.5,1,2.9,1.5,4.3v0c0.3,1.1,0.6,2.1,0.9,3c0.2,0.6,0.3,1.1,0.5,1.6c0.4,1.3,0.7,2.6,1,3.8c1.1,4.7,1.3,7.8,1.1,9
	c-0.9-0.8-2.7-3.3-4.9-7.6c-0.5-1.1-1.1-2.2-1.7-3.5c-0.5-1-0.9-2.1-1.4-3.3c-0.2-0.4-0.3-0.8-0.5-1.2c-0.5-1.3-1.1-2.7-1.6-4.2
	C8.2,76.7,10,76,11.6,75.2z M4.9,90.8c0.3-2.8,0.5-5.7,0.6-8.2c1.1,2.7,2.3,5.2,3.4,7.4c0.3,4.8,0,7.8-0.4,9
	C7.6,98.1,6.3,95.4,4.9,90.8L4.9,90.8z M51,258.3c2.2-1.6,4.2-3.2,6.2-5c2.5-2.2,4.9-4.5,7.1-7c1-1.1,1.9-2.2,2.8-3.3
	c0.8,6.6,4.3,12.2,9.3,15.1L51,258.3z M84.5,254.5c-6.3,0-11.5-6.3-11.5-14c0-7.7,5.1-14,11.5-14s11.5,6.3,11.5,14
	C96,248.2,90.8,254.5,84.5,254.5z M92.6,258.2c5-3,8.5-8.7,9.2-15.4c0.8,1.1,1.7,2.1,2.6,3.1c2.2,2.6,4.6,5,7.1,7.2
	c1.9,1.8,4,3.4,6.1,5L92.6,258.2z M199,244.8c-1-0.9-1.9-1.8-2.9-2.7c-2.5-2.4-6.8-0.7-7,2.8c0,1.3-0.1,2.6-0.2,3.9
	c-0.9,14.4-7.8,7-12,19.1c-5.1,0.5-10.2,0.4-15.1-0.1c-3.8-12.1-11-4.6-11.5-19c-0.1-1.3-0.1-2.6-0.1-3.9c0-3.5-4.3-5.3-6.9-2.8
	c-1,0.9-1.9,1.8-2.9,2.7c-10.8,9.6-10.2-0.7-21.7,5c-3.9-3.2-7.5-6.8-10.7-10.8c5.8-11-4.8-10.6,5.3-21.3c0.8-0.9,1.7-1.8,2.5-2.6
	c2.5-2.6,0.8-6.8-2.8-6.9c-1.2,0-2.4-0.1-3.6-0.1c-14.5-0.7-6.5-7.7-18.2-11.4c-0.4-5.2-0.3-10.5,0.4-15.6
	c12-3.7,4.2-10.6,18.4-11.3c1.3-0.1,2.6-0.1,4-0.1c3.6-0.1,5.4-4.3,3-6.8c-0.9-0.9-1.8-1.9-2.7-2.9c-9.3-10.3,1.2-9.6-4.3-20.4
	c3.4-4.1,7.3-7.8,11.5-11.2c10.7,5.5,10.1-5.1,20.6,4.4c1,0.9,1.9,1.8,2.9,2.7c2.5,2.4,6.8,0.7,7-2.8c0-1.2,0.1-2.4,0.2-3.6
	c0.9-13.8,7.7-6.1,11.6-17.8c5.4-0.5,10.8-0.5,16,0c3.6,11.6,10.6,3.8,11.1,17.7c0,1.3,0.1,2.6,0.1,3.9c0,3.5,4.3,5.3,6.9,2.8
	c1-0.9,1.9-1.8,2.9-2.7c10.6-9.4,9.9,0.9,21.1-4.7c4,3.2,7.8,6.9,11.1,10.9c-5.9,11,4.5,10.5-5.2,20.8c-0.9,1-1.8,1.9-2.8,2.9
	c-2.5,2.5-0.8,6.8,2.8,6.8c1.3,0,2.6,0.1,4,0.1c14.4,0.7,6.6,7.6,18.7,11.5c0.5,5.1,0.4,10.2-0.1,15.2c-12.2,3.9-4.7,10.8-19.1,11.5
	c-1.3,0.1-2.7,0.1-4,0.1c-3.6,0.1-5.4,4.3-3,6.8c0.9,0.9,1.8,1.9,2.7,2.9c9.6,10.6-0.7,10.3,5,21.6c-3.2,3.8-6.8,7.4-10.8,10.6
	C209.5,244.3,209.7,254.5,199,244.8z M221.7,258.3c2.2-1.6,4.2-3.2,6.2-5c2.5-2.2,4.9-4.5,7.1-7c0.9-1,1.8-2,2.7-3.1
	c0.8,6.5,4.3,12,9.3,15L221.7,258.3z M255,254.5c-6.3,0-11.5-6.3-11.5-14c0-7.7,5.1-14,11.5-14s11.5,6.3,11.5,14
	C266.5,248.2,261.3,254.5,255,254.5z M263.1,258.2c5-3,8.6-8.8,9.2-15.5c0.9,1.1,1.8,2.3,2.8,3.3c2.2,2.6,4.6,5,7.1,7.2
	c1.9,1.8,4,3.4,6.1,5L263.1,258.2z M369.6,244.8c-1-0.9-1.9-1.8-2.9-2.7c-2.5-2.4-6.8-0.7-7,2.8c0,1.3-0.1,2.6-0.2,3.9
	c-0.9,14.4-7.9,7-12,19.1c-5.1,0.5-10.2,0.4-15.1-0.1c-3.8-12.1-11-4.6-11.5-19c0-1.3-0.1-2.6-0.1-3.9c0-3.5-4.3-5.3-6.9-2.8
	c-1,0.9-1.9,1.8-2.9,2.7c-10.8,9.6-10.2-0.7-21.7,5c-3.9-3.2-7.5-6.8-10.7-10.8c5.8-11-4.7-10.6,5.3-21.3c0.8-0.9,1.7-1.8,2.5-2.6
	c2.5-2.6,0.8-6.8-2.8-6.9c-1.2,0-2.4-0.1-3.6-0.1c-14.5-0.7-6.5-7.7-18.2-11.4c-0.4-5.2-0.3-10.5,0.4-15.6
	c11.9-3.7,4.2-10.6,18.3-11.3c1.3-0.1,2.7-0.1,4-0.1c3.6-0.1,5.4-4.3,3-6.8c-0.9-0.9-1.8-1.9-2.7-2.9c-9.3-10.3,1.2-9.6-4.3-20.4
	c3.4-4.1,7.3-7.8,11.5-11.2c10.7,5.5,10.1-5.1,20.6,4.4c1,0.9,1.9,1.8,2.9,2.7c2.5,2.4,6.8,0.7,7-2.8c0-1.2,0.1-2.4,0.2-3.6
	c0.9-13.8,7.7-6.1,11.6-17.8c5.4-0.5,10.8-0.5,16,0c3.6,11.6,10.6,3.8,11.1,17.7c0,1.3,0.1,2.6,0.1,3.9c0,3.5,4.3,5.3,6.9,2.8
	c1-0.9,1.9-1.8,2.9-2.7c10.6-9.4,9.9,0.9,21.1-4.7c4,3.2,7.8,6.9,11.1,10.9c-5.9,11,4.5,10.5-5.2,20.8c-0.9,1-1.8,1.9-2.8,2.9
	c-2.5,2.5-0.8,6.8,2.8,6.8c1.3,0,2.6,0.1,3.9,0.1c14.4,0.7,6.6,7.6,18.7,11.5c0.5,5.1,0.4,10.2-0.1,15.2
	c-12.2,3.9-4.7,10.8-19.1,11.5c-1.3,0.1-2.7,0.1-4,0.1c-3.6,0.1-5.4,4.3-3,6.8c0.9,0.9,1.8,1.9,2.7,2.9c9.6,10.6-0.7,10.3,5,21.6
	c-3.2,3.8-6.8,7.4-10.8,10.6C380.2,244.3,380.3,254.5,369.6,244.8z M392.4,258.3c2.2-1.6,4.2-3.2,6.2-5c2.5-2.2,4.9-4.5,7.1-7
	c1.1-1.2,2.2-2.5,3.2-3.7c0.6,6.8,4.3,12.6,9.3,15.6L392.4,258.3z M426.3,254.5c-6.3,0-11.5-6.3-11.5-14c0-7.7,5.1-14,11.5-14
	c6.3,0,11.5,6.3,11.5,14C437.7,248.2,432.6,254.5,426.3,254.5z M434.4,258.2c4.9-2.9,8.4-8.4,9.2-14.9c0.7,0.9,1.5,1.8,2.2,2.7
	c2.2,2.6,4.6,5,7.1,7.2c1.9,1.8,4,3.4,6.1,5L434.4,258.2z M0,275.3c1.2,0,2.4-0.1,3.5-0.1c2.6-0.1,5.3-0.4,7.9-0.8
	c1-2.5,1.8-5,2.7-7.5c0.7-2,1.6-3.1,2.6-3.7h134.9c1,0.6,1.8,1.6,2.3,3.5c0.8,2.5,1.6,5,2.5,7.6c2.6,0.4,5.3,0.7,7.9,0.8
	c3.3,0.2,6.6,0.2,10,0c2.6-0.1,5.3-0.4,7.9-0.8c1-2.5,1.8-5,2.7-7.5c0.6-2,1.6-3.1,2.6-3.7h134.9c1,0.6,1.8,1.6,2.3,3.5
	c0.7,2.5,1.6,5,2.5,7.6c2.6,0.4,5.2,0.7,7.9,0.8c3.3,0.2,6.6,0.2,10,0c2.6-0.1,5.3-0.4,7.9-0.8c1-2.5,1.8-5,2.7-7.5
	c0.7-2,1.6-3.1,2.6-3.7h134.9c1,0.6,1.8,1.6,2.3,3.5c0.7,2.5,1.6,5,2.5,7.6c2.6,0.4,5.3,0.7,7.9,0.8c2.1,0.1,4.3,0.2,6.4,0.2v-7
	c-3,0-6-0.1-8.9-0.4c-3.8-12.1-11-4.6-11.6-19c0-1.3-0.1-2.6-0.1-3.9c0-3.5-4.3-5.3-6.9-2.8c-1,0.9-1.9,1.8-2.9,2.7
	c-10.8,9.6-10.2-0.7-21.7,5c-3.9-3.2-7.5-6.8-10.7-10.8c5.8-11-4.8-10.6,5.3-21.3c0.8-0.9,1.7-1.8,2.5-2.6c2.5-2.6,0.8-6.8-2.8-6.9
	c-1.2,0-2.4-0.1-3.6-0.1c-14.5-0.7-6.5-7.7-18.2-11.4c-0.4-5.2-0.3-10.5,0.4-15.6c12-3.7,4.2-10.6,18.4-11.3c1.3-0.1,2.7-0.1,4-0.1
	c3.6-0.1,5.4-4.3,3-6.8c-0.9-0.9-1.8-1.9-2.7-2.9c-9.3-10.3,1.2-9.6-4.3-20.4c3.4-4.1,7.3-7.8,11.5-11.2c10.7,5.5,10.1-5.1,20.6,4.4
	c1,0.9,1.9,1.8,2.9,2.7c2.5,2.4,6.8,0.7,7-2.8c0-1.2,0.1-2.4,0.2-3.6c0.9-13.8,7.7-6.1,11.6-17.8c2.4-0.2,4.8-0.4,7.1-0.4v-7v-4
	c-0.6-1.1-1.4-4-2-8.8c-0.1-1.2-0.3-2.5-0.4-3.9c-0.1-1.4-0.2-2.9-0.3-4.6c0-0.1,0-0.2,0-0.2c0-1.4-0.1-3-0.1-4.5
	c0.9,0.1,1.8,0.1,2.8,0.1V64.8c-7.4,0-13.3-6-13.3-13.3c0-7.4,6-13.3,13.3-13.3V25c-1,0-1.9,0.1-2.8,0.2c0-1.6,0-3.1,0.1-4.5
	c0,0,0,0,0,0c0.1-1.7,0.2-3.4,0.3-4.8c0.1-1.4,0.3-2.7,0.4-3.8v0c0.6-4.8,1.4-7.7,2-8.8V0c-1.9,0-3.1,2.7-3.9,6.4
	c-1.7-4.2-3.3-5.9-5-5.6c-1.8,0.3-2.6,3.2-2.8,6.9c-2.4-3.8-4.2-5.2-5.9-4.6c-1.1,0.4-1.7,1.6-1.8,3.7c-1.5-1.6-3.9-3.5-7.4-4.6
	c-7.8-2.6-17.7-0.8-29.6,5.3c-2.9-0.7-5.8-1.3-8.8-1.8c-9.5-1.5-26-2.8-35.8,4.4c0.1-1.6-0.3-2.6-1.2-3.2c-1.5-0.9-3.6,0.2-6.6,3.5
	c0.6-4.5,0.1-6.7-1.5-7.3c-1.7-0.6-3.5,0.8-5.9,4.6c-0.2-3.8-0.9-6.6-2.8-6.9c-1.8-0.3-3.3,1.4-5,5.6C387.1,2.7,385.9,0,384,0
	s-3.1,2.7-3.9,6.4c-1.7-4.2-3.3-5.9-5-5.6c-1.8,0.3-2.6,3.2-2.8,6.9c-2.4-3.8-4.2-5.2-5.9-4.6c-1.7,0.6-2.2,2.8-1.5,7.3
	c-3-3.4-5-4.4-6.6-3.5c-1,0.6-1.4,1.8-1.1,3.8c-9.6-7.8-26.4-6.6-36.1-5c-3,0.5-5.9,1.1-8.8,1.8c-11.8-6-21.8-7.8-29.5-5.3
	c-3.5,1.1-5.9,3-7.3,4.6c-0.1-2.1-0.7-3.3-1.8-3.7c-1.7-0.6-3.5,0.8-5.9,4.6c-0.2-3.8-0.9-6.6-2.8-6.9c-1.8-0.3-3.3,1.4-5,5.6
	C259.1,2.7,257.9,0,256,0s-3.1,2.7-3.9,6.4c-1.7-4.2-3.3-5.9-5-5.6c-1.8,0.3-2.6,3.2-2.8,6.9c-2.4-3.8-4.2-5.2-5.9-4.6
	c-1,0.4-1.6,1.4-1.8,3.2c-1.5-1.4-3.7-3.1-6.8-4.1c-7.7-2.6-17.7-0.8-29.6,5.3c-2.9-0.7-5.9-1.3-9-1.8c-9.7-1.6-26.7-2.8-36.3,5
	c0.3-2-0.1-3.2-1.1-3.8c-1.5-0.9-3.6,0.2-6.6,3.5c0.6-4.5,0.1-6.7-1.5-7.3c-1.7-0.6-3.5,0.8-5.9,4.6c-0.2-3.8-0.9-6.6-2.8-6.9
	c-1.8-0.3-3.3,1.4-5,5.6C131.1,2.7,129.9,0,128,0s-3.1,2.7-3.9,6.4c-1.7-4.2-3.3-5.9-5-5.6c-1.8,0.3-2.6,3.2-2.8,6.9
	c-2.4-3.8-4.2-5.2-5.9-4.6c-1.7,0.6-2.2,2.8-1.5,7.3c-3-3.4-5-4.4-6.6-3.5c-1,0.6-1.4,1.8-1.1,3.8c-9.6-7.8-26.4-6.6-36.1-5
	c-3,0.5-6,1.1-8.9,1.8c-11.9-6-21.8-7.8-29.5-5.3c-3.5,1.2-5.8,3-7.2,4.5c-0.1-2.1-0.7-3.2-1.8-3.6c-1.7-0.6-3.5,0.8-5.9,4.6
	C11.5,4,10.8,1.1,8.9,0.8c-1.8-0.3-3.3,1.4-5,5.6C3.1,2.7,1.9,0,0,0v3.1c0.6,1.1,1.4,4,2,8.8c0.1,1.2,0.3,2.5,0.4,3.8
	c0.1,1.5,0.2,3.1,0.3,4.8c0,1.4,0.1,3,0.1,4.5C1.9,25.1,1,25,0,25v13.1c7.4,0,13.3,6,13.3,13.3c0,7.4-6,13.3-13.3,13.3v13.1
	c1,0,1.9-0.1,2.8-0.1c0,1.6,0,3.1-0.1,4.5c0,0,0,0,0,0c0,0.1,0,0.2,0,0.2c-0.1,1.7-0.2,3.2-0.3,4.6C2.3,88.5,2.2,89.8,2,91
	c-0.3,2.4-0.6,4.3-1,5.8c-0.4,1.5-0.7,2.5-1,3v4v7c3,0,5.9,0.1,8.9,0.4c3.6,11.6,10.6,3.8,11.1,17.7c0.1,1.3,0.1,2.6,0.1,3.9
	c0,3.5,4.3,5.3,6.9,2.8c1-0.9,1.9-1.8,2.9-2.7c10.6-9.4,9.9,0.9,21.1-4.7c4,3.2,7.8,6.9,11.1,10.9c-5.9,11,4.5,10.5-5.2,20.8
	c-0.9,1-1.8,1.9-2.8,2.9c-2.5,2.5-0.8,6.8,2.8,6.8c1.3,0,2.6,0.1,4,0.1c14.4,0.7,6.6,7.6,18.7,11.5c0.5,5.1,0.4,10.2-0.1,15.2
	c-12.2,3.9-4.7,10.8-19.1,11.5c-1.3,0.1-2.6,0.1-4,0.1c-3.6,0.1-5.4,4.3-3,6.8c0.9,0.9,1.8,1.9,2.7,2.9c9.6,10.6-0.7,10.3,5,21.6
	c-3.2,3.8-6.8,7.4-10.8,10.6c-11.5-5.8-11.3,4.4-22-5.2c-1-0.9-1.9-1.8-2.9-2.7c-2.5-2.4-6.9-0.7-7,2.8c0,1.3-0.1,2.6-0.2,3.9
	c-0.9,14.4-7.9,7-12.1,19.1c-2.1,0.2-4.2,0.3-6.2,0.3V275.3z"/>
</svg>
